<svg width="64" height="64" viewBox="0 0 64 64" fill="none" xmlns="http://www.w3.org/2000/svg">
<path fill-rule="evenodd" clip-rule="evenodd" d="M14.0566 20.8086H27.0907C28.954 22.7884 31.5986 24.0245 34.5319 24.0245C37.4652 24.0245 40.1098 22.7884 41.9732 20.8086H55.0112C56.1158 20.8086 57.0112 21.704 57.0112 22.8086V22.8954C57.0112 23.9999 56.1157 24.8954 55.0112 24.8954L44.9438 24.8954V46.1077H40.6315C40.6506 46.2187 40.6606 46.3328 40.6606 46.4492V56.7529C40.6606 57.8575 39.7652 58.7529 38.6606 58.7529H38.5738C37.4692 58.7529 36.5738 57.8575 36.5738 56.7529V46.4492C36.5738 46.3328 36.5838 46.2187 36.6028 46.1077H32.4597C32.4788 46.2187 32.4887 46.3328 32.4887 46.4492V56.7529C32.4887 57.8575 31.5933 58.7529 30.4887 58.7529H30.4019C29.2974 58.7529 28.4019 57.8575 28.4019 56.7529V46.4492C28.4019 46.3328 28.4119 46.2187 28.431 46.1077H17.1148L26.2815 24.8954L14.0566 24.8954C12.9521 24.8954 12.0566 23.9999 12.0566 22.8954V22.8086C12.0566 21.704 12.9521 20.8086 14.0566 20.8086Z" fill="white"/>
<ellipse cx="34.8221" cy="13.2245" rx="7.58972" ry="7.58973" fill="white"/>
<path d="M22.0339 20.1797L22.398 19.837L22.2499 19.6797H22.0339V20.1797ZM36.9166 20.1797V19.6797H36.7005L36.5525 19.837L36.9166 20.1797ZM49.9545 20.1797V19.6797V20.1797ZM49.9545 24.2665V24.7665V24.2665ZM39.8871 24.2665V23.7665H39.3871V24.2665H39.8871ZM39.8871 45.4788V45.9788H40.3871V45.4788H39.8871ZM35.5749 45.4788V44.9788H34.9815L35.0821 45.5636L35.5749 45.4788ZM31.5462 45.4788L32.039 45.5636L32.1396 44.9788H31.5462V45.4788ZM27.403 45.4788V44.9788H26.8096L26.9103 45.5636L27.403 45.4788ZM23.3743 45.4788L23.8671 45.5636L23.9677 44.9788H23.3743V45.4788ZM12.0581 45.4788L11.5991 45.2804L11.2974 45.9788H12.0581V45.4788ZM21.2249 24.2665L21.6838 24.4648L21.9856 23.7665H21.2249V24.2665ZM9 24.2665V23.7665V24.2665ZM22.0339 19.6797H9V20.6797H22.0339V19.6797ZM29.4752 22.8957C26.6854 22.8957 24.1708 21.7206 22.398 19.837L21.6698 20.5224C23.6237 22.5984 26.3984 23.8957 29.4752 23.8957V22.8957ZM36.5525 19.837C34.7797 21.7206 32.2651 22.8957 29.4752 22.8957V23.8957C32.5521 23.8957 35.3268 22.5984 37.2807 20.5224L36.5525 19.837ZM49.9545 19.6797H36.9166V20.6797H49.9545V19.6797ZM52.4545 22.1797C52.4545 20.799 51.3353 19.6797 49.9545 19.6797V20.6797C50.783 20.6797 51.4545 21.3513 51.4545 22.1797H52.4545ZM52.4545 22.2665V22.1797H51.4545V22.2665H52.4545ZM49.9545 24.7665C51.3353 24.7665 52.4545 23.6472 52.4545 22.2665H51.4545C51.4545 23.0949 50.783 23.7665 49.9545 23.7665V24.7665ZM39.8871 24.7665L49.9545 24.7665V23.7665L39.8871 23.7665V24.7665ZM40.3871 45.4788V24.2665H39.3871V45.4788H40.3871ZM35.5749 45.9788H39.8871V44.9788H35.5749V45.9788ZM36.1039 45.8203C36.1039 45.6753 36.0916 45.5329 36.0677 45.394L35.0821 45.5636C35.0964 45.6467 35.1039 45.7324 35.1039 45.8203H36.1039ZM36.1039 56.124V45.8203H35.1039V56.124H36.1039ZM33.6039 58.624C34.9847 58.624 36.1039 57.5047 36.1039 56.124H35.1039C35.1039 56.9524 34.4324 57.624 33.6039 57.624V58.624ZM33.5172 58.624H33.6039V57.624H33.5172V58.624ZM31.0172 56.124C31.0172 57.5047 32.1364 58.624 33.5172 58.624V57.624C32.6887 57.624 32.0172 56.9524 32.0172 56.124H31.0172ZM31.0172 45.8203V56.124H32.0172V45.8203H31.0172ZM31.0534 45.394C31.0296 45.5329 31.0172 45.6753 31.0172 45.8203H32.0172C32.0172 45.7324 32.0247 45.6467 32.039 45.5636L31.0534 45.394ZM27.403 45.9788H31.5462V44.9788H27.403V45.9788ZM27.9321 45.8203C27.9321 45.6753 27.9197 45.5329 27.8958 45.394L26.9103 45.5636C26.9246 45.6467 26.9321 45.7324 26.9321 45.8203H27.9321ZM27.9321 56.124V45.8203H26.9321V56.124H27.9321ZM25.4321 58.624C26.8128 58.624 27.9321 57.5047 27.9321 56.124H26.9321C26.9321 56.9524 26.2605 57.624 25.4321 57.624V58.624ZM25.3453 58.624H25.4321V57.624H25.3453V58.624ZM22.8453 56.124C22.8453 57.5047 23.9646 58.624 25.3453 58.624V57.624C24.5169 57.624 23.8453 56.9524 23.8453 56.124H22.8453ZM22.8453 45.8203V56.124H23.8453V45.8203H22.8453ZM22.8816 45.394C22.8577 45.5329 22.8453 45.6753 22.8453 45.8203H23.8453C23.8453 45.7324 23.8528 45.6467 23.8671 45.5636L22.8816 45.394ZM12.0581 45.9788H23.3743V44.9788H12.0581V45.9788ZM20.7659 24.0681L11.5991 45.2804L12.5171 45.6771L21.6838 24.4648L20.7659 24.0681ZM9 24.7665L21.2249 24.7665V23.7665L9 23.7665V24.7665ZM6.5 22.2665C6.5 23.6472 7.61928 24.7665 9 24.7665V23.7665C8.17157 23.7665 7.5 23.0949 7.5 22.2665H6.5ZM6.5 22.1797V22.2665H7.5V22.1797H6.5ZM9 19.6797C7.61929 19.6797 6.5 20.799 6.5 22.1797H7.5C7.5 21.3513 8.17157 20.6797 9 20.6797V19.6797Z" fill="#3A3A3A"/>
<ellipse cx="29.7655" cy="12.5897" rx="7.58973" ry="7.58973" stroke="#3A3A3A"/>
</svg>
