<?xml version="1.0" encoding="utf-8"?>
<svg width="81" height="85" viewBox="0 0 81 85" fill="none" xmlns="http://www.w3.org/2000/svg">
  <path d="M59.8464 57.18C58.3104 57.18 57.0415 58.1094 56.5072 59.4371H56.2401V57.7775C56.2401 55.7859 54.6373 54.1927 52.6338 54.1927C50.6302 54.1927 49.0274 55.7859 49.0274 57.7775V55.3212C49.0274 53.3297 47.4246 51.7364 45.4211 51.7364C43.4176 51.7364 41.8148 53.3297 41.8148 55.3212V43.3055C41.8148 41.3139 40.212 39.7207 38.2085 39.7207C36.205 39.7207 34.6022 41.3139 34.6022 43.3055V58.043C34.6022 58.043 34.4018 66.474 34.8693 70.789C35.4036 78.1578 41.6144 83.9997 49.161 83.9997C57.0415 83.9997 63.3859 77.7594 63.5195 69.926C63.5863 69.8596 63.5863 69.7268 63.5863 69.5941V64.1505V60.8976V60.6984C63.4527 58.7733 61.8499 57.18 59.8464 57.18Z" fill="#8FD6FF"/>
</svg>