<svg width="249" height="140" viewBox="0 0 249 140" fill="none" xmlns="http://www.w3.org/2000/svg">
<path d="M63.5 54.9999C28.1916 59.8387 17.9035 74.4658 19.1866 86.9662C29.6861 126.466 108.341 122.07 121.703 114.812C135.065 107.554 168.673 101.102 207.95 111.989C247.226 122.877 232.455 63.9828 218.687 49.4662C192.623 21.9847 162.355 12.7953 137 16.4997C103.576 21.3829 107.636 48.9513 63.5 54.9999Z" fill="#7DEABC"/>
<rect x="28.5" y="14.5" width="8" height="8" stroke="black"/>
<rect x="0.5" y="55.5" width="8" height="8" stroke="black"/>
<rect x="19.5" y="93.5" width="8" height="8" stroke="black"/>
<rect x="142.5" y="73.5" width="8" height="8" stroke="black"/>
<rect x="102.5" y="68.5" width="8" height="8" stroke="black"/>
<rect x="123.5" y="93.5" width="8" height="8" stroke="black"/>
<rect x="198.5" y="9.5" width="8" height="8" stroke="black"/>
<rect x="170.5" y="43.5" width="6" height="6" stroke="black"/>
<rect x="81.5" y="9.5" width="6" height="6" stroke="black"/>
<rect x="99.5" y="31.5" width="6" height="6" stroke="black"/>
<rect x="66.5" y="28.5" width="6" height="6" stroke="black"/>
<rect x="101.5" y="11.5" width="4" height="4" stroke="black"/>
<rect x="46.5" y="106.5" width="4" height="4" stroke="black"/>
<rect x="196.5" y="69.5" width="4" height="4" stroke="black"/>
<rect x="120.5" y="7.5" width="4" height="4" stroke="black"/>
<rect x="77.5" y="92.5" width="4" height="4" stroke="black"/>
<rect x="52.5" y="89.5" width="4" height="4" stroke="black"/>
<rect x="53.5" y="120.5" width="4" height="4" stroke="black"/>
<rect x="70.5" y="103.5" width="4" height="4" stroke="black"/>
<rect x="206.5" y="31.5" width="6" height="6" stroke="black"/>
<rect x="177.5" y="72.5" width="2" height="2" stroke="black"/>
<rect x="183.5" y="93.5" width="2" height="2" stroke="black"/>
<rect x="197.5" y="81.5" width="2" height="2" stroke="black"/>
<rect x="205.5" y="62.5" width="2" height="2" stroke="black"/>
<rect x="230.5" y="72.5" width="4" height="4" stroke="black"/>
<rect x="211.5" y="74.5" width="4" height="4" stroke="black"/>
<rect x="229.5" y="94.5" width="4" height="4" stroke="black"/>
<rect x="216.5" y="54.5" width="4" height="4" stroke="black"/>
<rect x="236.5" y="59.5" width="4" height="4" stroke="black"/>
<rect x="116.5" y="22.5" width="4" height="4" stroke="black"/>
<rect x="182.5" y="81.5" width="4" height="4" stroke="black"/>
<rect x="174.5" y="84.5" width="2" height="2" stroke="black"/>
<rect x="113.5" y="16.5" width="2" height="2" stroke="black"/>
<rect x="128.5" y="18.5" width="2" height="2" stroke="black"/>
<rect x="129.5" y="1.5" width="2" height="2" stroke="black"/>
<rect x="132.5" y="10.5" width="2" height="2" stroke="black"/>
<rect x="108.5" y="0.5" width="2" height="2" stroke="black"/>
<rect x="200.5" y="92.5" width="2" height="2" stroke="black"/>
<rect x="73.5" y="122.5" width="2" height="2" stroke="black"/>
<rect x="78.5" y="124.5" width="2" height="2" stroke="black"/>
<rect x="65.5" y="127.5" width="2" height="2" stroke="black"/>
<rect x="63.5" y="113.5" width="2" height="2" stroke="black"/>
<rect x="58.5" y="102.5" width="2" height="2" stroke="black"/>
<rect x="83.5" y="112.5" width="2" height="2" stroke="black"/>
<rect x="208.5" y="85.5" width="2" height="2" stroke="black"/>
<rect x="216.5" y="67.5" width="2" height="2" stroke="black"/>
<rect x="228.5" y="50.5" width="2" height="2" stroke="black"/>
<rect x="220.5" y="83.5" width="2" height="2" stroke="black"/>
<rect x="218.5" y="93.5" width="2" height="2" stroke="black"/>
<rect x="191.5" y="87.5" width="2" height="2" stroke="black"/>
<rect x="193.5" y="56.5" width="2" height="2" stroke="black"/>
<rect x="242.5" y="84.5" width="6" height="6" stroke="black"/>
<rect x="136.5" y="40.5" width="8" height="8" stroke="black"/>
<rect x="235.5" y="25.5" width="8" height="8" stroke="black"/>
<path d="M183 120.5V110L194.128 105V110L205.256 105V109.2L214 105V120" stroke="black"/>
<path d="M186 109V101H187.5H189V107" stroke="black"/>
<path d="M198 108V98H201V106.929" stroke="black"/>
<path d="M208 108V94H211V106.5" stroke="black"/>
<path d="M173 124.301C180.167 120.301 201 114.701 227 124.301" stroke="black"/>
<path d="M76 139.301C83.1667 135.301 104 129.701 130 139.301" stroke="black"/>
<rect x="209.5" y="114.5" width="2" height="3" stroke="black"/>
<rect x="199.5" y="114.5" width="2" height="3" stroke="black"/>
<rect x="188.5" y="114.5" width="2" height="3" stroke="black"/>
<mask id="path-65-inside-1" fill="white">
<path fill-rule="evenodd" clip-rule="evenodd" d="M35.5395 68.742C28.2786 66.512 23 59.7529 23 51.761C23 41.9519 30.9519 34 40.761 34C47.2589 34 52.9419 37.4895 56.0381 42.6968C58.2278 41.6739 60.6587 41.1045 63.2183 41.1045C69.7879 41.1045 75.5091 44.8556 78.4827 50.3967C78.5157 50.3965 78.5487 50.3964 78.5817 50.3964C86.3786 50.3964 92.6993 56.9231 92.6993 64.9743C92.6993 72.8819 86.6019 79.319 78.9972 79.546V79.5492H78.8702C78.7743 79.5512 78.6781 79.5522 78.5817 79.5522C78.4853 79.5522 78.3891 79.5512 78.2932 79.5492H45.0873V79.5246C39.7534 79.1571 35.5371 74.5731 35.5371 68.9722C35.5371 68.8953 35.5379 68.8185 35.5395 68.742Z"/>
</mask>
<path d="M35.5395 68.742L36.5393 68.7627L36.5549 68.0078L35.8331 67.7861L35.5395 68.742ZM56.0381 42.6968L55.1786 43.2079L55.6412 43.9859L56.4613 43.6028L56.0381 42.6968ZM78.4827 50.3967L77.6015 50.8696L77.8867 51.401L78.4898 51.3967L78.4827 50.3967ZM78.9972 79.546L78.9673 78.5464L77.9972 78.5754V79.546H78.9972ZM78.9972 79.5492V80.5492H79.9972V79.5492H78.9972ZM78.8702 79.5492V78.5492H78.8598L78.8495 78.5494L78.8702 79.5492ZM78.2932 79.5492L78.3139 78.5494L78.3036 78.5492H78.2932V79.5492ZM45.0873 79.5492H44.0873V80.5492H45.0873V79.5492ZM45.0873 79.5246H46.0873V78.5911L45.156 78.5269L45.0873 79.5246ZM35.8331 67.7861C28.9802 65.6814 24 59.3015 24 51.761H22C22 60.2044 27.577 67.3427 35.2459 69.6979L35.8331 67.7861ZM24 51.761C24 42.5041 31.5041 35 40.761 35V33C30.3996 33 22 41.3996 22 51.761H24ZM40.761 35C46.8919 35 52.2551 38.2911 55.1786 43.2079L56.8976 42.1857C53.6286 36.6878 47.626 33 40.761 33V35ZM63.2183 40.1045C60.5087 40.1045 57.9337 40.7076 55.6149 41.7908L56.4613 43.6028C58.522 42.6403 60.8086 42.1045 63.2183 42.1045V40.1045ZM79.3638 49.9239C76.2286 44.0817 70.1823 40.1045 63.2183 40.1045V42.1045C69.3935 42.1045 74.7895 45.6295 77.6015 50.8696L79.3638 49.9239ZM78.5817 49.3964C78.5463 49.3964 78.5109 49.3965 78.4756 49.3968L78.4898 51.3967C78.5204 51.3965 78.5511 51.3964 78.5817 51.3964V49.3964ZM93.6993 64.9743C93.6993 56.4013 86.9609 49.3964 78.5817 49.3964V51.3964C85.7963 51.3964 91.6993 57.4449 91.6993 64.9743H93.6993ZM79.027 80.5456C87.1993 80.3017 93.6993 73.3951 93.6993 64.9743H91.6993C91.6993 72.3688 86.0046 78.3364 78.9673 78.5464L79.027 80.5456ZM79.9972 79.5492V79.546H77.9972V79.5492H79.9972ZM78.8702 80.5492H78.9972V78.5492H78.8702V80.5492ZM78.5817 80.5522C78.685 80.5522 78.788 80.5511 78.8909 80.549L78.8495 78.5494C78.7605 78.5513 78.6712 78.5522 78.5817 78.5522V80.5522ZM78.2725 80.549C78.3754 80.5511 78.4784 80.5522 78.5817 80.5522V78.5522C78.4922 78.5522 78.4029 78.5513 78.3139 78.5494L78.2725 80.549ZM45.0873 80.5492H78.2932V78.5492H45.0873V80.5492ZM44.0873 79.5246V79.5492H46.0873V79.5246H44.0873ZM34.5371 68.9722C34.5371 75.0749 39.1369 80.117 45.0186 80.5222L45.156 78.5269C40.3699 78.1972 36.5371 74.0713 36.5371 68.9722H34.5371ZM34.5397 68.7213C34.538 68.8047 34.5371 68.8884 34.5371 68.9722H36.5371C36.5371 68.9022 36.5378 68.8324 36.5393 68.7627L34.5397 68.7213Z" fill="black" mask="url(#path-65-inside-1)"/>
<path fill-rule="evenodd" clip-rule="evenodd" d="M56.5261 43.5744C50.9801 46.135 47.0434 51.7818 46.7913 58.4344L46.7549 59.3974L45.7912 59.3966L45.7789 59.3965L53.6678 63.9621C53.6677 63.9622 53.6677 63.9622 53.6676 63.9623L45.778 59.3965C40.7041 59.397 36.5367 63.6537 36.5367 68.9727C36.5367 68.9875 36.5367 69.0023 36.5368 69.0171C36.2003 68.935 35.8677 68.8434 35.5391 68.7425C35.6577 63.0077 40.1968 58.3965 45.7789 58.3965L45.7921 58.3966C46.0571 51.4011 50.1866 45.4304 56.0377 42.6973C56.2085 42.9845 56.3714 43.277 56.5261 43.5744Z" fill="black"/>
<path d="M103 131H89V127H103V131Z" stroke="black"/>
<path d="M103 127H89V117H103V127Z" stroke="black"/>
<path d="M109.797 131H104.043C103.49 131 103.043 130.552 103.043 130V121.601C103.043 120.892 103.718 120.07 104.426 120.027C105.718 119.948 107.522 119.994 108.214 120.895C109.132 122.09 110.286 127.422 110.77 129.822C110.893 130.436 110.422 131 109.797 131Z" stroke="black"/>
<circle cx="93.5" cy="131.5" r="2" fill="#F6F6F6" stroke="black"/>
<circle cx="107.5" cy="131.5" r="2" fill="#F6F6F6" stroke="black"/>
<path d="M103 125H110" stroke="black"/>
<path d="M160 14H154.225L149 3H151.475L160 14Z" stroke="black"/>
<path d="M158.5 12C163.222 11.0435 170.208 10.2019 172.327 13.6009C173.034 14.073 174.341 15.1871 173.917 15.8669C173.493 16.5467 154.438 16.9054 144.722 16.9998L140 11.9014L143.306 11.7392L146.139 13.6009L153.5 12.9998" stroke="black"/>
</svg>
