<?xml version="1.0" encoding="utf-8"?>
<svg width="104" height="104" viewBox="0 0 104 104" fill="none" xmlns="http://www.w3.org/2000/svg">
  <path d="M17.1642 30.1636C11.501 40 15.058 52.0121 21.9995 62.999" stroke="#3A3A3A" stroke-width="1.5" stroke-linecap="round"/>
  <path d="M17.8397 29.8954C30 28.5 38.5013 34.4995 45.5005 45.5001" stroke="#3A3A3A" stroke-width="1.5" stroke-linecap="round"/>
  <mask id="path-4-inside-1_1408_280784" fill="white">
    <path d="M59.3327 38.0762C56.9937 34.6857 54.0097 31.7891 50.5513 29.5517C47.0928 27.3144 43.2275 25.7802 39.1761 25.0367C35.1247 24.2932 30.9665 24.355 26.939 25.2185C22.9115 26.082 19.0934 27.7303 15.7029 30.0693C12.3124 32.4083 9.41582 35.3923 7.17851 38.8508C4.94119 42.3092 3.40698 46.1745 2.66348 50.2259C1.91997 54.2773 1.98173 58.4355 2.84522 62.463C3.70871 66.4906 5.35703 70.3086 7.69607 73.6991L33.5144 55.8876L59.3327 38.0762Z"/>
  </mask>
  <path d="M59.3327 38.0762C56.9937 34.6857 54.0097 31.7891 50.5513 29.5517C47.0928 27.3144 43.2275 25.7802 39.1761 25.0367C35.1247 24.2932 30.9665 24.355 26.939 25.2185C22.9115 26.082 19.0934 27.7303 15.7029 30.0693C12.3124 32.4083 9.41582 35.3923 7.17851 38.8508C4.94119 42.3092 3.40698 46.1745 2.66348 50.2259C1.91997 54.2773 1.98173 58.4355 2.84522 62.463C3.70871 66.4906 5.35703 70.3086 7.69607 73.6991L33.5144 55.8876L59.3327 38.0762Z" stroke="#3A3A3A" stroke-width="3" mask="url(#path-4-inside-1_1408_280784)"/>
  <path d="M2.6875 102.341C17.2771 89.8997 56.4605 67.0529 96.4777 75.1963" stroke="#3A3A3A" stroke-width="1.5" stroke-linecap="round"/>
  <path d="M13.3799 24.5117L55.4699 87.244" stroke="#3A3A3A" stroke-width="1.5" stroke-linecap="round"/>
</svg>