<svg width="64" height="64" viewBox="0 0 64 64" fill="none" xmlns="http://www.w3.org/2000/svg">
<path fill-rule="evenodd" clip-rule="evenodd" d="M29.4551 11.125C29.1789 11.125 28.9551 11.3489 28.9551 11.625V24.17H31.8471V33.8029H55.2092C55.3375 33.8029 55.4608 33.8522 55.5537 33.9405L61.3099 39.4111C61.6284 39.7137 62.1544 39.488 62.1544 39.0486V33.8029V27.3957V11.625C62.1544 11.3489 61.9305 11.125 61.6544 11.125H29.4551Z" fill="white"/>
<circle cx="41.1517" cy="19.2728" r="6.35483" stroke="#3A3A3A"/>
<path d="M43.1104 21.2317C42.1311 21.9706 39.585 23.0052 37.2348 21.2317" stroke="#3A3A3A" stroke-width="0.75" stroke-linecap="round"/>
<ellipse rx="0.873665" ry="0.873666" transform="matrix(1 0 0 -1 37.694 18.1127)" fill="#3A3A3A"/>
<ellipse rx="0.873663" ry="0.873666" transform="matrix(1 0 0 -1 42.9362 18.1127)" fill="#3A3A3A"/>
<path fill-rule="evenodd" clip-rule="evenodd" d="M36.3817 27.3457C36.3817 27.0696 36.1578 26.8457 35.8817 26.8457H5.86914C5.593 26.8457 5.36914 27.0696 5.36914 27.3457V43.1164V49.5236V54.7123C5.36914 55.1599 5.91202 55.382 6.22573 55.0628L11.5233 49.6731C11.6173 49.5775 11.7458 49.5236 11.8799 49.5236H35.8817C36.1578 49.5236 36.3817 49.2998 36.3817 49.0236V27.3457Z" fill="white"/>
<path d="M1.85659 52.4456L2.21318 52.7961L1.85659 52.4456ZM7.15415 47.0559L6.79756 46.7054L7.15415 47.0559ZM1.5 24.7285H31.5125V23.7285H1.5V24.7285ZM1.5 40.4992V24.7285H0.5V40.4992H1.5ZM1.5 46.9064V40.4992H0.5V46.9064H1.5ZM1.5 52.0951V46.9064H0.5V52.0951H1.5ZM6.79756 46.7054L1.5 52.0951L2.21318 52.7961L7.51074 47.4064L6.79756 46.7054ZM31.5125 46.4064H7.51074V47.4064H31.5125V46.4064ZM31.5125 24.7285V46.4064H32.5125V24.7285H31.5125ZM0.5 52.0951C0.5 52.9902 1.58575 53.4345 2.21318 52.7961L1.5 52.0951L1.5 52.0951H0.5ZM31.5125 47.4064C32.0648 47.4064 32.5125 46.9587 32.5125 46.4064H31.5125V47.4064ZM31.5125 24.7285V24.7285H32.5125C32.5125 24.1762 32.0648 23.7285 31.5125 23.7285V24.7285ZM7.51074 47.4064H7.51074V46.4064C7.24254 46.4064 6.98557 46.5142 6.79756 46.7054L7.51074 47.4064ZM1.5 23.7285C0.947715 23.7285 0.5 24.1762 0.5 24.7285H1.5L1.5 24.7285V23.7285Z" fill="#3A3A3A"/>
<path d="M23.215 34.71C23.215 38.294 20.3096 41.1993 16.7256 41.1993C13.1417 41.1993 10.2363 38.294 10.2363 34.71C10.2363 31.1261 13.1417 28.2207 16.7256 28.2207C20.3096 28.2207 23.215 31.1261 23.215 34.71Z" stroke="#3A3A3A"/>
<path d="M14.541 37.1792C15.4147 36.3056 17.6862 35.0824 19.783 37.1792" stroke="#3A3A3A" stroke-width="0.75" stroke-linecap="round"/>
<ellipse rx="0.873665" ry="0.873665" transform="matrix(1 0 0 -1 15.0172 33.8373)" fill="#3A3A3A"/>
<circle r="0.873665" transform="matrix(1 0 0 -1 20.2575 33.8373)" fill="#3A3A3A"/>
<path fill-rule="evenodd" clip-rule="evenodd" d="M59.1622 9C59.1622 8.44772 58.7145 8 58.1622 8H25.9629C25.4106 8 24.9629 8.44771 24.9629 9V24.1688H25.9629V9L58.1622 9L58.1622 24.7707V36.4236L52.406 30.9531C52.2201 30.7764 51.9735 30.6779 51.7171 30.6779H36.2552V31.6779H51.7171L57.4733 37.1485C58.1102 37.7538 59.1622 37.3023 59.1622 36.4236V24.7707L59.1622 9Z" fill="#3A3A3A"/>
</svg>
