<svg width="64" height="64" viewBox="0 0 64 64" fill="none" xmlns="http://www.w3.org/2000/svg">
<path fill-rule="evenodd" clip-rule="evenodd" d="M34.1957 8.03711C38.3264 8.03711 42.186 10.2563 44.0938 12.8137C45.9554 14.2967 47.1825 16.8351 47.1825 19.7173C47.1825 24.2906 44.093 27.9981 40.2819 27.9981C40.0486 27.9981 39.8181 27.9842 39.5907 27.957V29.3004C39.5907 29.8526 39.143 30.3004 38.5907 30.3004H38.4946C38.053 30.3004 37.6639 30.011 37.5352 29.5886C37.2794 28.7492 36.9203 27.5888 36.6457 26.7565C35.9422 26.2321 35.3231 25.56 34.8185 24.7764L34.7564 24.7767C32.082 24.7767 29.7629 23.3567 28.6175 21.2805C25.9304 20.1125 24.1787 18.1986 24.1787 16.0356C24.1787 12.4786 28.352 8.03711 34.1957 8.03711Z" fill="white"/>
<path d="M41.9649 13.4699L41.5642 13.7689L41.6028 13.8207L41.6534 13.861L41.9649 13.4699ZM37.4609 28.6132L37.5202 28.1167L36.9609 28.0499V28.6132H37.4609ZM35.4054 30.2461L35.8836 30.1004L35.4054 30.2461ZM34.515 27.4114L34.9899 27.2547L34.9404 27.1049L34.814 27.0106L34.515 27.4114ZM32.6896 25.4327L33.11 25.162L32.9616 24.9316L32.6875 24.9327L32.6896 25.4327ZM32.6275 25.4329V25.9329L32.6295 25.9329L32.6275 25.4329ZM26.4886 21.9368L26.9263 21.6952L26.8441 21.5461L26.6879 21.4782L26.4886 21.9368ZM42.3657 13.1709C40.3659 10.4904 36.3594 8.19336 32.0668 8.19336V9.19336C36.0356 9.19336 39.7482 11.3347 41.5642 13.7689L42.3657 13.1709ZM45.5536 20.3736C45.5536 17.3544 44.2686 14.666 42.2765 13.0788L41.6534 13.861C43.3843 15.24 44.5536 17.6282 44.5536 20.3736H45.5536ZM38.153 29.1543C42.3217 29.1543 45.5536 25.1338 45.5536 20.3736H44.5536C44.5536 24.76 41.6065 28.1543 38.153 28.1543V29.1543ZM37.4016 29.1096C37.6488 29.1392 37.8995 29.1543 38.153 29.1543V28.1543C37.9393 28.1543 37.7282 28.1416 37.5202 28.1167L37.4016 29.1096ZM37.9609 29.9579V28.6132H36.9609V29.9579H37.9609ZM36.4609 31.4579C37.2893 31.4579 37.9609 30.7863 37.9609 29.9579H36.9609C36.9609 30.234 36.7371 30.4579 36.4609 30.4579V31.4579ZM36.3648 31.4579H36.4609V30.4579H36.3648V31.4579ZM34.9271 30.3918C35.1197 31.0239 35.7023 31.4579 36.3648 31.4579V30.4579C36.1441 30.4579 35.9485 30.3132 35.8836 30.1004L34.9271 30.3918ZM34.0402 27.5681C34.313 28.3948 34.6712 29.5521 34.9271 30.3918L35.8836 30.1004C35.6274 29.2595 35.2664 28.093 34.9899 27.2547L34.0402 27.5681ZM32.2692 25.7034C32.8035 26.5331 33.4621 27.2498 34.2161 27.8122L34.814 27.0106C34.1624 26.5246 33.5841 25.8982 33.11 25.162L32.2692 25.7034ZM32.6295 25.9329L32.6916 25.9327L32.6875 24.9327L32.6254 24.9329L32.6295 25.9329ZM26.0508 22.1783C27.2867 24.4186 29.7763 25.9329 32.6275 25.9329V24.9329C30.1299 24.9329 27.9813 23.6074 26.9263 21.6952L26.0508 22.1783ZM21.5498 16.6918C21.5498 19.1486 23.5261 21.1943 26.2892 22.3953L26.6879 21.4782C24.077 20.3433 22.5498 18.561 22.5498 16.6918H21.5498ZM32.0668 8.19336C29.0159 8.19336 26.3962 9.35312 24.5373 10.9827C22.6899 12.6023 21.5498 14.7289 21.5498 16.6918H22.5498C22.5498 15.0977 23.4964 13.2251 25.1965 11.7347C26.8852 10.2543 29.2741 9.19336 32.0668 9.19336V8.19336Z" fill="#3A3A3A"/>
<path d="M15.7388 36.6499C14.1802 36.4578 10.9413 34.9982 12.344 33.6147C18.7729 27.274 14.9897 24.8686 16.077 18.5942C17.0377 13.0499 19.5444 10.2532 23.7221 8.03626C33.1691 3.02316 45.075 8.03798 48.7883 14.7194C52.9666 22.2374 51.5523 32.6088 42.8405 43.1217C40.351 46.1259 39.409 52.1344 42.8405 58.1426" stroke="#3A3A3A"/>
<path d="M15.3649 36.4453C14.6099 39.119 14.0913 46.4718 21.2133 46.4718C26.3412 46.4718 23.6462 51.4851 23.6464 58.1694" stroke="#3A3A3A"/>
</svg>
