<svg width="64" height="64" viewBox="0 0 64 64" fill="none" xmlns="http://www.w3.org/2000/svg">
<path d="M14.8516 38.5742L35.3825 21.8855" stroke="white" stroke-width="2" stroke-linecap="round"/>
<path d="M8.79102 31.6289L19.0908 44.7922" stroke="white" stroke-width="2" stroke-linecap="round"/>
<path d="M30.7314 14.4609L41.0312 27.6243" stroke="white" stroke-width="2" stroke-linecap="round"/>
<path d="M35.9443 15.0996L41.6664 22.4126" stroke="white" stroke-width="2" stroke-linecap="round"/>
<path d="M8.1543 36.8398L13.8764 44.1528" stroke="white" stroke-width="2" stroke-linecap="round"/>
<path d="M29.8076 41.6484L57.6643 41.6844" stroke="white" stroke-width="2" stroke-linecap="round"/>
<path d="M29.8203 32.3633L29.7987 49.0773" stroke="white" stroke-width="2" stroke-linecap="round"/>
<path d="M57.6777 32.4004L57.6562 49.1144" stroke="white" stroke-width="2" stroke-linecap="round"/>
<path d="M61.3838 36.1211L61.3718 45.4067" stroke="white" stroke-width="2" stroke-linecap="round"/>
<path d="M26.1016 36.0742L26.0896 45.3598" stroke="white" stroke-width="2" stroke-linecap="round"/>
<path d="M9.38477 39.6914L33.8259 19.809" stroke="#3A3A3A" stroke-linecap="round"/>
<path d="M2.72461 31.5664L14.4631 46.5684" stroke="#3A3A3A" stroke-linecap="round"/>
<path d="M27.7285 12L39.467 27.002" stroke="#3A3A3A" stroke-linecap="round"/>
<path d="M33.6729 12.7266L40.1942 21.061" stroke="#3A3A3A" stroke-linecap="round"/>
<path d="M2 37.502L8.52137 45.8364" stroke="#3A3A3A" stroke-linecap="round"/>
<path d="M26.9258 43.0293L58.6735 43.0703" stroke="#3A3A3A" stroke-linecap="round"/>
<path d="M26.9443 32.4453L26.9198 51.4939" stroke="#3A3A3A" stroke-linecap="round"/>
<path d="M58.6895 32.4902L58.6649 51.5389" stroke="#3A3A3A" stroke-linecap="round"/>
<path d="M62.916 36.7324L62.9024 47.315" stroke="#3A3A3A" stroke-linecap="round"/>
<path d="M22.7051 36.6797L22.6914 47.2622" stroke="#3A3A3A" stroke-linecap="round"/>
</svg>
