<svg width="301" height="162" viewBox="0 0 301 162" fill="none" xmlns="http://www.w3.org/2000/svg">
<circle cx="157.205" cy="86.1915" r="46.2813" stroke="black" stroke-width="2"/>
<ellipse cx="154" cy="86" rx="10" ry="40" fill="#E98686"/>
<ellipse cx="156.5" cy="91.5" rx="10.5" ry="40.5" transform="rotate(90 156.5 91.5)" fill="#E98686"/>
<ellipse rx="0.90295" ry="3.6118" transform="matrix(-1 0 0 1 160.792 3.6118)" fill="black"/>
<ellipse rx="0.90295" ry="3.79239" transform="matrix(4.37114e-08 1 1 -4.37114e-08 160.792 3.7926)" fill="black"/>
<ellipse rx="0.90295" ry="3.6118" transform="matrix(-1 0 0 1 61.7924 151.612)" fill="black"/>
<ellipse rx="0.90295" ry="3.79239" transform="matrix(4.37114e-08 1 1 -4.37114e-08 61.7924 151.792)" fill="black"/>
<ellipse rx="0.90295" ry="3.6118" transform="matrix(-0.569188 -0.822208 -0.822208 0.569188 295.128 39.1737)" fill="black"/>
<ellipse rx="0.90295" ry="3.79239" transform="matrix(-0.822208 0.569188 0.569188 0.822208 294.981 39.2766)" fill="black"/>
<ellipse rx="0.586909" ry="2.34764" transform="matrix(-0.599573 -0.80032 -0.80032 0.599573 74.3571 13.3802)" fill="black"/>
<ellipse rx="0.586909" ry="2.46502" transform="matrix(-0.80032 0.599573 0.599573 0.80032 74.2622 13.4507)" fill="black"/>
<ellipse rx="0.586909" ry="2.34764" transform="matrix(-0.869367 0.494168 0.494168 0.869367 282.304 142.259)" fill="black"/>
<ellipse rx="0.586909" ry="2.46502" transform="matrix(0.494168 0.869367 0.869367 -0.494168 282.361 142.36)" fill="black"/>
<ellipse rx="0.586909" ry="2.34764" transform="matrix(-0.869367 0.494168 0.494168 0.869367 224.304 158.259)" fill="black"/>
<ellipse rx="0.586909" ry="2.46502" transform="matrix(0.494168 0.869367 0.869367 -0.494168 224.361 158.36)" fill="black"/>
<ellipse rx="0.586909" ry="2.34764" transform="matrix(-0.869367 0.494168 0.494168 0.869367 3.30418 131.259)" fill="black"/>
<ellipse rx="0.586909" ry="2.46502" transform="matrix(0.494168 0.869367 0.869367 -0.494168 3.36077 131.36)" fill="black"/>
<ellipse rx="0.586909" ry="2.34764" transform="matrix(-0.580157 0.814505 0.814505 0.580157 249.343 9.36933)" fill="black"/>
<ellipse rx="0.586909" ry="2.46502" transform="matrix(0.814505 0.580156 0.580156 -0.814505 249.437 9.4382)" fill="black"/>
<ellipse rx="0.805181" ry="3.22072" transform="matrix(-0.580157 0.814505 0.814505 0.580157 250.586 92.6201)" fill="black"/>
<ellipse rx="0.805181" ry="3.38176" transform="matrix(0.814505 0.580156 0.580156 -0.814505 250.715 92.7146)" fill="black"/>
<ellipse rx="0.805181" ry="3.22072" transform="matrix(-0.0185223 0.999828 0.999828 0.0185223 29.2834 82.4389)" fill="black"/>
<ellipse rx="0.805181" ry="3.38176" transform="matrix(0.999828 0.0185222 0.0185222 -0.999828 29.4419 82.4423)" fill="black"/>
<circle cx="157.204" cy="34.4775" r="1.47754" fill="black"/>
<circle cx="111" cy="142" r="1" fill="black"/>
<circle cx="293" cy="106" r="1" fill="black"/>
<circle cx="21" cy="14" r="1" fill="black"/>
<circle cx="67" cy="64" r="1" fill="black"/>
<circle cx="157.204" cy="136.427" r="1.47754" fill="black"/>
<circle cx="208.181" cy="85.4521" r="1.47754" transform="rotate(90 208.181 85.4521)" fill="black"/>
<circle cx="106.229" cy="85.4521" r="1.47754" transform="rotate(90 106.229 85.4521)" fill="black"/>
<rect x="159.841" y="65.6014" width="24.311" height="41.5314" rx="1.51944" transform="rotate(39.2886 159.841 65.6014)" fill="#F7F7F7" stroke="black" stroke-width="1.01296"/>
<circle cx="145.174" cy="101.692" r="1.5" transform="rotate(24.8023 145.174 101.692)" fill="#211F1F"/>
<path d="M155.314 104.766L140.353 93.2721L160.227 69.5747L174.694 81.0208L155.314 104.766Z" fill="white"/>
<path fill-rule="evenodd" clip-rule="evenodd" d="M165.845 103.159C165.328 107.9 164.59 112.164 163.687 115.747C162.762 119.414 161.676 122.31 160.51 124.266C159.305 126.286 158.203 127 157.343 127C156.482 127 155.381 126.286 154.176 124.266C153.009 122.31 151.924 119.414 150.999 115.747C149.153 108.428 148 98.2642 148 87C148 75.7358 149.153 65.5719 150.999 58.2532C151.924 54.5863 153.009 51.6898 154.176 49.7342C155.381 47.7142 156.482 47 157.343 47C158.203 47 159.305 47.7142 160.51 49.7342C161.676 51.6898 162.762 54.5863 163.687 58.2532C164.38 61.0029 164.976 64.1542 165.45 67.6146L166.367 66.9533C164.596 54.4488 161.218 46 157.343 46C151.631 46 147 64.3563 147 87C147 109.644 151.631 128 157.343 128C161.659 128 165.358 117.517 166.908 102.623L165.845 103.159Z" fill="black"/>
<path fill-rule="evenodd" clip-rule="evenodd" d="M179.223 79.6734C181.582 80.062 183.769 80.5104 185.747 81.0094C189.414 81.9345 192.31 83.0199 194.266 84.1862C196.286 85.391 197 86.4926 197 87.3533C197 88.2139 196.286 89.3155 194.266 90.5203C192.31 91.6867 189.414 92.7721 185.747 93.6971C178.428 95.5433 168.264 96.6961 157 96.6961C145.736 96.696 135.572 95.5433 128.253 93.6971C124.586 92.7721 121.69 91.6867 119.734 90.5203C117.714 89.3155 117 88.2139 117 87.3533C117 86.4926 117.714 85.391 119.734 84.1862C121.69 83.0199 124.586 81.9345 128.253 81.0094C133.116 79.7826 139.236 78.8621 146.1 78.3824L146.372 77.3613C128.881 78.5423 116 82.5683 116 87.3533C116 93.0654 134.356 97.696 157 97.6961C179.644 97.6961 198 93.0654 198 87.3533C198 83.7478 190.687 80.5733 179.599 78.722L179.223 79.6734Z" fill="black"/>
</svg>
