<?xml version="1.0" encoding="utf-8"?>
<svg width="104" height="104" viewBox="0 0 104 104" fill="none" xmlns="http://www.w3.org/2000/svg">
  <g clip-path="url(#clip0_1408_280774)">
    <path fill-rule="evenodd" clip-rule="evenodd" d="M37.6936 22.3105C44.406 22.3105 50.6779 25.9167 53.7781 30.0724C56.8031 32.4824 58.7972 36.6072 58.7972 41.2909C58.7972 48.7226 53.7767 54.7471 47.5837 54.7471C47.2046 54.7471 46.8299 54.7245 46.4605 54.6804V57.4883C46.4605 58.0406 46.0128 58.4883 45.4605 58.4883H44.2143C43.7727 58.4883 43.3836 58.1989 43.2554 57.7763C42.8395 56.4045 42.1719 54.2362 41.6749 52.7295C40.5317 51.8773 39.5257 50.7853 38.7057 49.5119C38.672 49.5122 38.6384 49.5124 38.6047 49.5124C34.2588 49.5124 30.4903 47.2049 28.629 43.8311C24.2626 41.9331 21.416 38.8229 21.416 35.3081C21.416 29.5279 28.1977 22.3105 37.6936 22.3105Z" fill="white"/>
  </g>
  <defs>
    <clipPath id="clip0_1408_280774">
      <rect width="104" height="104" fill="white"/>
    </clipPath>
  </defs>
</svg>