<?xml version="1.0" encoding="utf-8"?>
<svg width="104" height="104" viewBox="0 0 104 104" fill="none" xmlns="http://www.w3.org/2000/svg">
  <circle cx="66.8715" cy="43.9438" r="10.3891" stroke="#3A3A3A" stroke-width="1.5"/>
  <path d="M70.0537 47.1255C68.4624 48.3263 64.325 50.0075 60.5059 47.1255" stroke="#3A3A3A" stroke-linecap="round"/>
  <ellipse rx="1.4197" ry="1.41971" transform="matrix(1 0 0 -1 61.2517 42.0588)" fill="#3A3A3A"/>
  <ellipse rx="1.4197" ry="1.41971" transform="matrix(1 0 0 -1 69.7713 42.0588)" fill="#3A3A3A"/>
  <path d="M2.48159 98.3936L3.01647 98.9193L2.48159 98.3936ZM11.7173 88.9972L11.1825 88.4715L11.7173 88.9972ZM2.125 52.7461H51.5204V51.2461H2.125V52.7461ZM2.375 78.4359V52.4961H0.875V78.4359H2.375ZM2.375 88.8477V78.4359H0.875V88.8477H2.375ZM2.375 98.0431V88.8477H0.875V98.0431H2.375ZM11.1825 88.4715L1.94671 97.8679L3.01647 98.9193L12.2522 89.5229L11.1825 88.4715ZM51.5204 88.0977H12.0739V89.5977H51.5204V88.0977ZM51.2704 52.4961V88.3477H52.7704V52.4961H51.2704ZM0.875 98.0431C0.875 99.1619 2.23218 99.7173 3.01647 98.9193L1.94671 97.8679C2.10356 97.7083 2.375 97.8193 2.375 98.0431H0.875ZM51.5204 89.5977C52.2107 89.5977 52.7704 89.0381 52.7704 88.3477H51.2704C51.2704 88.2096 51.3823 88.0977 51.5204 88.0977V89.5977ZM51.5204 52.7461C51.3823 52.7461 51.2704 52.6342 51.2704 52.4961H52.7704C52.7704 51.8057 52.2107 51.2461 51.5204 51.2461V52.7461ZM12.2522 89.5229C12.2052 89.5708 12.141 89.5977 12.0739 89.5977V88.0977C11.7387 88.0977 11.4175 88.2324 11.1825 88.4715L12.2522 89.5229ZM2.125 51.2461C1.43464 51.2461 0.875 51.8057 0.875 52.4961H2.375C2.375 52.6342 2.26307 52.7461 2.125 52.7461V51.2461Z" fill="#3A3A3A"/>
  <path d="M37.7876 69.0276C37.7876 74.886 33.0384 79.6352 27.1799 79.6352C21.3215 79.6352 16.5723 74.886 16.5723 69.0276C16.5723 63.1691 21.3215 58.4199 27.1799 58.4199C33.0384 58.4199 37.7876 63.1691 37.7876 69.0276Z" stroke="#3A3A3A" stroke-width="1.5"/>
  <path d="M23.6299 73.0396C25.0496 71.6198 28.7408 69.6322 32.1481 73.0396" stroke="#3A3A3A" stroke-linecap="round"/>
  <ellipse rx="1.41971" ry="1.4197" transform="matrix(1 0 0 -1 24.4031 67.6096)" fill="#3A3A3A"/>
  <ellipse rx="1.41971" ry="1.4197" transform="matrix(1 0 0 -1 32.9187 67.6096)" fill="#3A3A3A"/>
  <path fill-rule="evenodd" clip-rule="evenodd" d="M96.0758 26.9375C96.0758 26.2471 95.5161 25.6875 94.8258 25.6875H41.877C41.1866 25.6875 40.627 26.2471 40.627 26.9375V51.8993H42.127V27.1875H94.5758V52.8773V63.2891V71.959L85.0259 62.883C84.7936 62.6622 84.4853 62.5391 84.1648 62.5391H58.9144V64.0391H84.0649L93.9647 73.4476C94.7608 74.2042 96.0758 73.6399 96.0758 72.5415V63.2891V52.8773V26.9375Z" fill="#3A3A3A"/>
</svg>