<?xml version="1.0" encoding="utf-8"?>
<svg width="105" height="104" viewBox="0 0 105 104" fill="none" xmlns="http://www.w3.org/2000/svg">
  <path d="M77.7455 101.465L68.6387 24" stroke="white" stroke-width="3" stroke-linecap="round"/>
  <path d="M62.1387 101.999V24" stroke="white" stroke-width="3" stroke-linecap="round"/>
  <path d="M4.179 42.5064L4.20103 46.1434C4.227 50.4296 7.77073 53.9528 12.0593 53.956V53.956C16.2293 53.9592 19.5462 50.6263 19.5209 46.4587L19.4239 30.512" stroke="white" stroke-width="3" stroke-linecap="round"/>
  <path d="M13.3906 36.998L13.3906 101.997" stroke="white" stroke-width="3" stroke-linecap="round"/>
  <path d="M39.3906 66.2441L39.3906 101.994" stroke="white" stroke-width="3" stroke-linecap="round"/>
  <path d="M52.3916 53.6926C52.3916 60.6246 46.7721 66.2441 39.8401 66.2441L38.9436 66.2441C32.0116 66.2441 26.3921 60.6246 26.3921 53.6926L26.3921 53.2444C26.3921 46.0648 32.2123 40.2446 39.3918 40.2446C46.5714 40.2446 52.3916 46.0648 52.3916 53.2444L52.3916 53.6926Z" fill="white"/>
</svg>