<svg width="64" height="64" viewBox="0 0 64 64" fill="none" xmlns="http://www.w3.org/2000/svg">
<ellipse cx="39.2403" cy="14.7598" rx="6.50006" ry="6.50006" fill="white"/>
<circle cx="48.9268" cy="32.9258" r="6.50006" fill="white"/>
<ellipse cx="35.9268" cy="51.5001" rx="6.50006" ry="6.50006" fill="white"/>
<ellipse cx="20.1425" cy="32.0029" rx="7.42864" ry="7.42865" fill="white"/>
<path d="M21.7924 24.3292C22.1411 23.9572 28.5086 18.8285 31.6488 16.3106" stroke="#3A3A3A" stroke-linecap="round"/>
<path d="M22.0009 37.5748C22.3999 37.8392 27.1201 42.6365 29.4303 45.0021" stroke="#3A3A3A" stroke-linecap="round"/>
<path d="M25.7139 32L40.5712 32" stroke="#3A3A3A" stroke-linecap="round"/>
<path d="M40.0734 49.6407C40.0734 52.9544 37.387 55.6408 34.0733 55.6408C30.7596 55.6408 28.0732 52.9544 28.0732 49.6407C28.0732 46.3269 30.7596 43.6406 34.0733 43.6406C37.387 43.6406 40.0734 46.3269 40.0734 49.6407Z" stroke="#3A3A3A"/>
<path d="M42.9786 12.5001C42.9786 15.8138 40.2923 18.5001 36.9786 18.5001C33.6648 18.5001 30.9785 15.8138 30.9785 12.5001C30.9785 9.18632 33.6648 6.5 36.9786 6.5C40.2923 6.5 42.9786 9.18632 42.9786 12.5001Z" stroke="#3A3A3A"/>
<path d="M53.0714 31.0743C53.0714 34.388 50.3851 37.0743 47.0714 37.0743C43.7576 37.0743 41.0713 34.388 41.0713 31.0743C41.0713 27.7605 43.7576 25.0742 47.0714 25.0742C50.3851 25.0742 53.0714 27.7605 53.0714 31.0743Z" stroke="#3A3A3A"/>
<path d="M25.2145 31.0721C25.2145 35.4115 21.6967 38.9293 17.3572 38.9293C13.0178 38.9293 9.5 35.4115 9.5 31.0721C9.5 26.7326 13.0178 23.2148 17.3572 23.2148C21.6967 23.2148 25.2145 26.7326 25.2145 31.0721Z" stroke="#3A3A3A"/>
</svg>
