<svg width="69" height="64" viewBox="0 0 69 64" fill="none" xmlns="http://www.w3.org/2000/svg">
<ellipse cx="21.3477" cy="41.5" rx="9" ry="8.5" fill="white"/>
<mask id="path-2-inside-1_1408_293247" fill="white">
<path fill-rule="evenodd" clip-rule="evenodd" d="M64.9602 29.525C66.9289 27.1447 68.112 24.0908 68.112 20.7606C68.112 13.1608 61.9511 7 54.3514 7C46.7516 7 40.5908 13.1608 40.5908 20.7606C40.5908 28.3603 46.7516 34.5211 54.3514 34.5211C57.4731 34.5211 60.352 33.4816 62.6609 31.7299C55.7819 30.3601 50.5973 24.2894 50.5973 17.0077C50.5973 13.1651 52.0411 9.65969 54.4158 7.0044C61.9843 7.04097 68.1085 13.1877 68.1085 20.7648C68.1085 24.0931 66.9268 27.1453 64.9602 29.525Z"/>
</mask>
<path fill-rule="evenodd" clip-rule="evenodd" d="M64.9602 29.525C66.9289 27.1447 68.112 24.0908 68.112 20.7606C68.112 13.1608 61.9511 7 54.3514 7C46.7516 7 40.5908 13.1608 40.5908 20.7606C40.5908 28.3603 46.7516 34.5211 54.3514 34.5211C57.4731 34.5211 60.352 33.4816 62.6609 31.7299C55.7819 30.3601 50.5973 24.2894 50.5973 17.0077C50.5973 13.1651 52.0411 9.65969 54.4158 7.0044C61.9843 7.04097 68.1085 13.1877 68.1085 20.7648C68.1085 24.0931 66.9268 27.1453 64.9602 29.525Z" fill="#3A3A3A"/>
<path d="M64.9602 29.525L64.1894 28.888L65.7308 30.1624L64.9602 29.525ZM62.6609 31.7299L63.2653 32.5265L65.036 31.1832L62.8562 30.7491L62.6609 31.7299ZM54.4158 7.0044L54.4206 6.00441L53.9705 6.00223L53.6704 6.33777L54.4158 7.0044ZM67.112 20.7606C67.112 23.8497 66.0156 26.6801 64.1897 28.8877L65.7308 30.1624C67.8423 27.6094 69.112 24.3319 69.112 20.7606H67.112ZM54.3514 8C61.3989 8 67.112 13.7131 67.112 20.7606H69.112C69.112 12.6085 62.5034 6 54.3514 6V8ZM41.5908 20.7606C41.5908 13.7131 47.3039 8 54.3514 8V6C46.1994 6 39.5908 12.6085 39.5908 20.7606H41.5908ZM54.3514 33.5211C47.3039 33.5211 41.5908 27.808 41.5908 20.7606H39.5908C39.5908 28.9126 46.1994 35.5211 54.3514 35.5211V33.5211ZM62.0565 30.9332C59.9155 32.5576 57.2474 33.5211 54.3514 33.5211V35.5211C57.6988 35.5211 60.7886 34.4056 63.2653 32.5265L62.0565 30.9332ZM62.8562 30.7491C56.4359 29.4707 51.5973 23.8031 51.5973 17.0077H49.5973C49.5973 24.7756 55.1279 31.2495 62.4656 32.7106L62.8562 30.7491ZM51.5973 17.0077C51.5973 13.4204 52.9441 10.1501 55.1612 7.67102L53.6704 6.33777C51.1381 9.16929 49.5973 12.9098 49.5973 17.0077H51.5973ZM54.411 8.00439C61.4294 8.0383 67.1085 13.7384 67.1085 20.7648H69.1085C69.1085 12.637 62.5393 6.04364 54.4206 6.00441L54.411 8.00439ZM67.1085 20.7648C67.1085 23.8521 66.0134 26.6809 64.1894 28.888L65.7311 30.1621C67.8403 27.6098 69.1085 24.334 69.1085 20.7648H67.1085Z" fill="#3A3A3A" mask="url(#path-2-inside-1_1408_293247)"/>
<circle cx="17.3477" cy="40" r="8.5" stroke="#3A3A3A"/>
<path d="M17.5977 23.5391V28.0656" stroke="#3A3A3A" stroke-linecap="round"/>
<path d="M17.5977 52.2051V56.7316" stroke="#3A3A3A" stroke-linecap="round"/>
<path d="M34.1953 40.1348L29.6688 40.1348" stroke="#3A3A3A" stroke-linecap="round"/>
<path d="M5.52637 40.1348L0.999857 40.1348" stroke="#3A3A3A" stroke-linecap="round"/>
<path d="M29.3311 51.8691L26.1303 48.6684" stroke="#3A3A3A" stroke-linecap="round"/>
<path d="M9.06055 31.6016L5.85982 28.4008" stroke="#3A3A3A" stroke-linecap="round"/>
<path d="M29.335 28.3965L26.1342 31.5972" stroke="#3A3A3A" stroke-linecap="round"/>
<path d="M9.06445 48.668L5.86373 51.8687" stroke="#3A3A3A" stroke-linecap="round"/>
</svg>
