<?xml version="1.0" encoding="utf-8"?>
<svg width="104" height="104" viewBox="0 0 104 104" fill="none" xmlns="http://www.w3.org/2000/svg">
  <path d="M1 103.133H95.5669" stroke="#3A3A3A" stroke-width="1.5" stroke-linecap="round"/>
  <path d="M16.0469 88.0879V103.133" stroke="#3A3A3A" stroke-width="1.5" stroke-linecap="round"/>
  <path d="M28.9395 92.3848V103.131" stroke="#3A3A3A" stroke-width="1.5" stroke-linecap="round"/>
  <path d="M50.4326 96.6836H82.6713" stroke="#3A3A3A" stroke-width="1.5" stroke-linecap="round"/>
  <path d="M49.3564 102.06V89.1641H83.7444V102.06" stroke="#3A3A3A" stroke-width="1.5" stroke-linecap="round"/>
  <circle cx="28.9415" cy="81.6408" r="9.99623" stroke="#3A3A3A" stroke-width="1.5"/>
  <path fill-rule="evenodd" clip-rule="evenodd" d="M19.2153 86.2163C18.1982 86.4603 17.1366 86.5895 16.0447 86.5895C8.56418 86.5895 2.5 80.5253 2.5 73.0447C2.5 65.5642 8.56418 59.5 16.0447 59.5C22.7972 59.5 28.3956 64.4412 29.4214 70.9051C29.9459 70.9281 30.4606 70.9887 30.9629 71.0843C30.0022 63.7016 23.6893 58 16.0447 58C7.73575 58 1 64.7358 1 73.0447C1 81.3537 7.73575 88.0895 16.0447 88.0895C17.4055 88.0895 18.7241 87.9088 19.9778 87.5702C19.6924 87.1396 19.4373 86.6873 19.2153 86.2163Z" fill="#3A3A3A"/>
</svg>