<?xml version="1.0" encoding="utf-8"?>
<svg width="104" height="104" viewBox="0 0 104 104" fill="none" xmlns="http://www.w3.org/2000/svg">
  <path fill-rule="evenodd" clip-rule="evenodd" d="M29.9742 24.8443C39.3319 22.3369 49.2722 23.4617 57.8122 27.9575L38.6182 61.2024L29.6099 76.8054C25.7705 74.6984 21.6433 75.7144 17.1631 77.2086C16.9011 77.296 16.7596 77.5792 16.847 77.8411C16.9343 78.1031 17.2175 78.2446 17.4795 78.1572C21.9695 76.6598 25.6936 75.8086 29.1097 77.6718L19.4243 94.4474C11.2608 89.2994 5.31651 81.2532 2.80913 71.8955C0.172061 62.0538 1.55259 51.5677 6.64703 42.7438C11.7415 33.92 20.1325 27.4814 29.9742 24.8443ZM29.586 23.3954C39.3279 20.785 49.6777 21.9634 58.5628 26.6575C59.0042 26.8907 59.442 27.1326 59.8759 27.3831L59.1259 28.6822L39.9173 61.9524L20.7087 95.2227L19.9587 96.5217C19.5248 96.2712 19.0964 96.013 18.6737 95.7474C10.1659 90.3997 3.9706 82.0258 1.36025 72.2838C-1.37979 62.0578 0.0546423 51.1622 5.34799 41.9938C10.6413 32.8255 19.36 26.1354 29.586 23.3954ZM33.6616 49.2783C33.8463 49.073 33.8295 48.7568 33.6242 48.5722C33.4188 48.3875 33.1027 48.4043 32.9181 48.6096C31.7502 49.9083 29.4655 51.0697 27.0487 51.6118C24.6163 52.1574 22.2449 52.0337 20.8398 50.9991C20.6174 50.8354 20.3044 50.883 20.1407 51.1053C19.9769 51.3277 20.0245 51.6407 20.2468 51.8044C22.0091 53.102 24.7493 53.1524 27.2675 52.5876C29.8013 52.0192 32.3061 50.7857 33.6616 49.2783ZM28.4998 45.748C29.3816 45.748 30.0964 46.4628 30.0964 47.3446C30.0964 48.2265 29.3816 48.9413 28.4998 48.9413C27.6179 48.9413 26.9031 48.2265 26.9031 47.3446C26.9031 46.4628 27.6179 45.748 28.4998 45.748Z" fill="#3A3A3A"/>
  <path fill-rule="evenodd" clip-rule="evenodd" d="M59.4408 92.6775C50.0831 95.1848 40.1428 94.0601 31.6027 89.5642L39.8872 75.2151C41.6341 76.289 44.6113 77.7196 47.9134 78.7591C51.5319 79.8983 55.6325 80.5977 58.9625 79.7652C59.2304 79.6982 59.3933 79.4268 59.3263 79.1589C59.2593 78.891 58.9878 78.7281 58.7199 78.7951C55.6632 79.5593 51.7804 78.9281 48.2137 77.8053C44.9609 76.7813 42.0476 75.3731 40.3874 74.3487L50.7967 56.3193L69.9907 23.0744C78.1542 28.2223 84.0984 36.2685 86.6058 45.6262C89.2429 55.4679 87.8624 65.9541 82.7679 74.7779C77.6735 83.6017 69.2825 90.0404 59.4408 92.6775ZM59.829 94.1263C50.087 96.7367 39.7372 95.5584 30.8522 90.8642C30.4108 90.631 29.973 90.3891 29.5391 90.1386L30.2891 88.8396L49.4977 55.5693L68.7063 22.299L69.4563 21C69.8902 21.2505 70.3186 21.5087 70.7412 21.7744C79.249 27.122 85.4444 35.496 88.0547 45.238C90.7947 55.4639 89.3603 66.3596 84.067 75.5279C78.7736 84.6962 70.055 91.3863 59.829 94.1263ZM60.1344 47.5867C59.8602 47.6195 59.6644 47.8683 59.6971 48.1425C59.7299 48.4167 59.9787 48.6124 60.2529 48.5797C64.2302 48.1051 66.8202 49.4211 68.4676 51.2161C70.1368 53.035 70.871 55.3844 71.0292 56.9831C71.0564 57.2579 71.3013 57.4586 71.5761 57.4314C71.8509 57.4042 72.0516 57.1593 72.0244 56.8845C71.8499 55.1219 71.0514 52.5527 69.2043 50.54C67.3353 48.5034 64.425 47.0747 60.1344 47.5867ZM65.2244 53.7298C65.2244 52.848 64.5096 52.1331 63.6277 52.1331C62.7459 52.1331 62.0311 52.848 62.0311 53.7298C62.0311 54.6117 62.7459 55.3265 63.6277 55.3265C64.5096 55.3265 65.2244 54.6117 65.2244 53.7298Z" fill="#3A3A3A"/>
</svg>