<?xml version="1.0" encoding="utf-8"?>
<svg width="104" height="104" viewBox="0 0 104 104" fill="none" xmlns="http://www.w3.org/2000/svg">
  <path d="M10.8208 57.3549V58.1049H11.6175L11.5694 57.3097L10.8208 57.3549ZM49.9036 45.2096L49.2612 45.5967L49.9036 46.6629L50.546 45.5967L49.9036 45.2096ZM88.9865 57.3549L88.2378 57.3097L88.1898 58.1049H88.9865V57.3549ZM89.0189 57.3549H89.7689V56.6049H89.0189V57.3549ZM49.9125 102.062L49.5328 102.709L49.912 102.932L50.2914 102.709L49.9125 102.062ZM10.8054 57.3549V56.6049H10.1075L10.0573 57.301L10.8054 57.3549ZM11.5694 57.3097C11.5446 56.8982 11.532 56.4832 11.532 56.0653H10.032C10.032 56.5134 10.0455 56.9585 10.0722 57.4001L11.5694 57.3097ZM11.532 56.0653C11.532 44.8455 20.6274 35.75 31.8472 35.75V34.25C19.799 34.25 10.032 44.017 10.032 56.0653H11.532ZM31.8472 35.75C39.2365 35.75 45.7053 39.6947 49.2612 45.5967L50.546 44.8226C46.73 38.4889 39.784 34.25 31.8472 34.25V35.75ZM50.546 45.5967C54.102 39.6947 60.5707 35.75 67.96 35.75V34.25C60.0233 34.25 53.0773 38.4889 49.2612 44.8226L50.546 45.5967ZM67.96 35.75C79.1798 35.75 88.2753 44.8455 88.2753 56.0653H89.7753C89.7753 44.017 80.0083 34.25 67.96 34.25V35.75ZM88.2753 56.0653C88.2753 56.4832 88.2627 56.8982 88.2378 57.3097L89.7351 57.4001C89.7618 56.9585 89.7753 56.5134 89.7753 56.0653H88.2753ZM88.9865 58.1049H89.0189V56.6049H88.9865V58.1049ZM88.2689 57.3549C88.2689 61.6338 86.5866 66.1211 83.8222 70.5816C81.0611 75.0365 77.2527 79.4128 73.0802 83.4543C64.7338 91.5386 55.008 98.2098 49.5336 101.415L50.2914 102.709C55.847 99.4568 65.6744 92.7159 74.1238 84.5317C78.3491 80.439 82.2492 75.9669 85.0971 71.3718C87.9417 66.7821 89.7689 62.0175 89.7689 57.3549H88.2689ZM50.2922 101.415C34.1174 91.9188 24.2995 82.5453 18.5935 74.7214C12.871 66.8748 11.3204 60.6413 11.5534 57.4089L10.0573 57.301C9.789 61.023 11.5475 67.6056 17.3816 75.6052C23.2322 83.6275 33.2186 93.1305 49.5328 102.709L50.2922 101.415ZM10.8054 58.1049H10.8208V56.6049H10.8054V58.1049Z" fill="#3A3A3A"/>
  <path d="M2 74.072H22.8749L27.8604 64.0839L35.5799 77.2566L41.3696 56.5566L49.0891 82.902L58.7385 60.3203L66.458 70.5978H95.4062" stroke="#3A3A3A" stroke-width="1.5" stroke-linecap="round"/>
</svg>