<svg width="64" height="64" viewBox="0 0 64 64" fill="none" xmlns="http://www.w3.org/2000/svg">
<path d="M18.1778 49.458C23.8198 52.7154 30.5248 53.5982 36.8177 51.912C43.1106 50.2258 48.476 46.1088 51.7334 40.4668C54.9909 34.8247 55.8736 28.1197 54.1874 21.8268C52.5012 15.5339 48.3843 10.1686 42.7422 6.91115L30.46 28.1846L18.1778 49.458Z" fill="white"/>
<path fill-rule="evenodd" clip-rule="evenodd" d="M18.4656 4.43972C24.1795 2.90867 30.2477 3.58548 35.4701 6.31218L23.6985 26.7012L18.1874 36.2466C15.8155 34.9821 13.2709 35.6152 10.5406 36.5258C10.3441 36.5913 10.238 36.8037 10.3035 37.0001C10.369 37.1966 10.5814 37.3028 10.7779 37.2372C13.5114 36.3256 15.7569 35.814 17.8122 36.8966L11.9269 47.0902C6.95427 43.9309 3.33405 39.0141 1.803 33.3001C0.185466 27.2634 1.03226 20.8314 4.1571 15.419C7.28193 10.0066 12.4288 6.05726 18.4656 4.43972ZM18.2067 3.4738C24.1769 1.87409 30.518 2.58656 35.9705 5.44541C36.2652 5.59994 36.5574 5.76074 36.8467 5.92779L36.3467 6.79382L24.5645 27.2012L12.7823 47.6086L12.2823 48.4746C11.9929 48.3076 11.7076 48.135 11.4264 47.957C6.22435 44.6644 2.43678 39.5291 0.837074 33.5589C-0.849103 27.266 0.0336266 20.5611 3.29107 14.919C6.54851 9.27693 11.9138 5.15997 18.2067 3.4738ZM20.7649 19.4467C20.9034 19.2927 20.8908 19.0556 20.7368 18.9171C20.5828 18.7787 20.3457 18.7912 20.2072 18.9452C19.5012 19.7304 18.11 20.4402 16.6306 20.7721C15.1395 21.1065 13.705 21.0255 12.8644 20.4065C12.6976 20.2837 12.4629 20.3194 12.3401 20.4861C12.2173 20.6529 12.2529 20.8877 12.4197 21.0105C13.5282 21.8267 15.2393 21.8528 16.7948 21.5039C18.3619 21.1524 19.9181 20.3884 20.7649 19.4467ZM17.5383 17.2292C18.081 17.2292 18.5209 17.6691 18.5209 18.2118C18.5209 18.7544 18.081 19.1944 17.5383 19.1944C16.9956 19.1944 16.5557 18.7544 16.5557 18.2118C16.5557 17.6691 16.9956 17.2292 17.5383 17.2292Z" fill="#3A3A3A"/>
<path fill-rule="evenodd" clip-rule="evenodd" d="M36.5589 46.0349C30.8449 47.566 24.7767 46.8891 19.5544 44.1624L24.5779 35.4615C25.6664 36.1207 27.47 36.9803 29.4648 37.6083C31.695 38.3104 34.2332 38.7454 36.3008 38.2285C36.5017 38.1783 36.6239 37.9747 36.5736 37.7738C36.5234 37.5728 36.3198 37.4507 36.1189 37.5009C34.2562 37.9666 31.8814 37.5828 29.69 36.8929C27.7339 36.2771 25.979 35.4352 24.9529 34.8118L31.326 23.7734L43.0976 3.38439C48.0702 6.54376 51.6904 11.4605 53.2214 17.1745C54.839 23.2112 53.9922 29.6433 50.8673 35.0556C47.7425 40.468 42.5956 44.4174 36.5589 46.0349ZM36.8177 47.0008C30.8475 48.6005 24.5064 47.8881 19.0539 45.0292C18.7592 44.8747 18.4671 44.7139 18.1777 44.5468L18.6777 43.6808L30.4599 23.2734L42.2422 2.86603L42.7422 2C43.0315 2.16705 43.3168 2.33964 43.598 2.51762C48.8001 5.81018 52.5877 10.9455 54.1874 16.9157C55.8735 23.2086 54.9908 29.9136 51.7334 35.5556C48.4759 41.1977 43.1106 45.3147 36.8177 47.0008ZM36.9976 18.2942C36.792 18.3188 36.6452 18.5054 36.6697 18.711C36.6943 18.9167 36.8809 19.0635 37.0865 19.039C39.513 18.7494 41.0853 19.5517 42.0841 20.64C43.0994 21.7463 43.5469 23.1773 43.6432 24.15C43.6636 24.3561 43.8472 24.5067 44.0533 24.4863C44.2594 24.4659 44.4099 24.2823 44.3895 24.0762C44.2811 22.9804 43.7854 21.3846 42.6367 20.1329C41.4716 18.8634 39.6591 17.9766 36.9976 18.2942ZM40.138 22.1414C40.138 21.5988 39.698 21.1589 39.1554 21.1589C38.6127 21.1589 38.1728 21.5988 38.1728 22.1414C38.1728 22.6841 38.6127 23.124 39.1554 23.124C39.698 23.124 40.138 22.6841 40.138 22.1414Z" fill="#3A3A3A"/>
</svg>
