<svg width="181" height="104" viewBox="0 0 181 104" fill="none" xmlns="http://www.w3.org/2000/svg">
<path d="M96.6523 41.1372C84.727 34.028 39.6523 16.3848 14.1507 35.8847C-4.4234 55.6514 45.1522 58.8849 48.7321 78.6742C52.9719 102.111 126.265 103.405 164.368 70.2834C180.797 56.0017 175.887 41.1369 161.266 41.1369C158.49 41.1369 156.152 41.1369 137.152 47.8848C127.439 51.3343 122.652 56.6369 96.6523 41.1372Z" fill="#5BC0EB"/>
<path d="M79.5645 89.2324H97.5138" stroke="black" stroke-linecap="round"/>
<rect x="74.0195" y="30.5" width="27.2466" height="42.4564" rx="13.6233" stroke="black"/>
<line x1="73.5195" y1="44.7109" x2="86.5564" y2="44.7109" stroke="black"/>
<line x1="73.5195" y1="51.2285" x2="86.5564" y2="51.2285" stroke="black"/>
<line x1="73.5195" y1="57.748" x2="86.5564" y2="57.748" stroke="black"/>
<path d="M88.543 78.4629L88.543 89.2325" stroke="black"/>
<path fill-rule="evenodd" clip-rule="evenodd" d="M67.5 47.3828C67.2239 47.3828 67 47.6067 67 47.8828V58.1064C67 69.5066 76.2416 78.7482 87.6418 78.7482C99.0419 78.7482 108.284 69.5065 108.284 58.1064V47.8828C108.284 47.6067 108.06 47.3828 107.784 47.3828C107.507 47.3828 107.284 47.6067 107.284 47.8828V58.1064C107.284 68.9543 98.4896 77.7482 87.6418 77.7482C76.7939 77.7482 68 68.9543 68 58.1064V47.8828C68 47.6067 67.7761 47.3828 67.5 47.3828Z" fill="black"/>
<path d="M35 13.5957L35 15.9034" stroke="black"/>
<path d="M38 12.7305L38 16.7689" stroke="black"/>
<path d="M41 11V18.5" stroke="black"/>
<path d="M44 12.7305L44 16.7689" stroke="black"/>
<path d="M47 13.5957L47 15.9034" stroke="black"/>
<path d="M1 54.5957L1 56.9034" stroke="black"/>
<path d="M4 53.7305L4 57.7689" stroke="black"/>
<path d="M7 52V59.5" stroke="black"/>
<path d="M10 53.7305L10 57.7689" stroke="black"/>
<path d="M13 54.5957L13 56.9034" stroke="black"/>
<path d="M168 54.5957L168 56.9034" stroke="black"/>
<path d="M171 53.7305L171 57.7689" stroke="black"/>
<path d="M174 52V59.5" stroke="black"/>
<path d="M177 53.7305L177 57.7689" stroke="black"/>
<path d="M180 54.5957L180 56.9034" stroke="black"/>
<path d="M123 87.5957L123 89.9034" stroke="black"/>
<path d="M126 86.7305L126 90.7689" stroke="black"/>
<path d="M129 85V92.5" stroke="black"/>
<path d="M132 86.7305L132 90.7689" stroke="black"/>
<path d="M135 87.5957L135 89.9034" stroke="black"/>
<path d="M41 98.5957L41 100.903" stroke="black"/>
<path d="M44 97.7305L44 101.769" stroke="black"/>
<path d="M47 96V103.5" stroke="black"/>
<path d="M50 97.7305L50 101.769" stroke="black"/>
<path d="M53 98.5957L53 100.903" stroke="black"/>
<path d="M90 2.5957L90 4.9034" stroke="black"/>
<path d="M93 1.73047L93 5.76893" stroke="black"/>
<path d="M96 0V7.5" stroke="black"/>
<path d="M99 1.73047L99 5.76893" stroke="black"/>
<path d="M102 2.5957L102 4.9034" stroke="black"/>
<path d="M136 18.5957L136 20.9034" stroke="black"/>
<path d="M139 17.7305L139 21.7689" stroke="black"/>
<path d="M142 16V23.5" stroke="black"/>
<path d="M145 17.7305L145 21.7689" stroke="black"/>
<path d="M148 18.5957L148 20.9034" stroke="black"/>
<path d="M54.3996 71.5C42.8991 65 35.899 45 54.3996 32" stroke="black" stroke-linecap="round"/>
<path d="M58 63C51.9469 59.3797 48.2625 48.2405 58 41" stroke="black" stroke-linecap="round"/>
<path d="M121.6 32C133.101 38.5 140.101 58.5 121.6 71.5" stroke="black" stroke-linecap="round"/>
<path d="M118 40.5C124.053 44.1203 127.737 55.2595 118 62.5" stroke="black" stroke-linecap="round"/>
</svg>
