<?xml version="1.0" encoding="utf-8"?>
<svg width="111" height="105" viewBox="0 0 111 105" fill="none" xmlns="http://www.w3.org/2000/svg">
  <mask id="path-2-inside-1_1408_280775" fill="white">
    <path fill-rule="evenodd" clip-rule="evenodd" d="M105.565 59.5967C108.761 55.7297 110.681 50.7695 110.681 45.3609C110.681 33.0113 100.67 23 88.3199 23C75.9703 23 65.959 33.0113 65.959 45.3609C65.959 57.7105 75.9703 67.7218 88.3199 67.7218C93.3927 67.7218 98.071 66.0326 101.823 63.1861C90.6444 60.9602 82.2195 51.0952 82.2195 39.2625C82.2195 33.0183 84.5657 27.322 88.4246 23.0071C100.723 23.0666 110.675 33.055 110.675 45.3678C110.675 50.7732 108.757 55.7307 105.565 59.5967Z"/>
  </mask>
  <path fill-rule="evenodd" clip-rule="evenodd" d="M105.565 59.5967C108.761 55.7297 110.681 50.7695 110.681 45.3609C110.681 33.0113 100.67 23 88.3199 23C75.9703 23 65.959 33.0113 65.959 45.3609C65.959 57.7105 75.9703 67.7218 88.3199 67.7218C93.3927 67.7218 98.071 66.0326 101.823 63.1861C90.6444 60.9602 82.2195 51.0952 82.2195 39.2625C82.2195 33.0183 84.5657 27.322 88.4246 23.0071C100.723 23.0666 110.675 33.055 110.675 45.3678C110.675 50.7732 108.757 55.7307 105.565 59.5967Z" fill="#3A3A3A"/>
  <path d="M105.565 59.5967L104.408 58.6416L106.721 60.5523L105.565 59.5967ZM101.823 63.1861L102.73 64.3811L105.385 62.366L102.116 61.7149L101.823 63.1861ZM88.4246 23.0071L88.4318 21.5072L87.7566 21.5039L87.3065 22.0072L88.4246 23.0071ZM109.181 45.3609C109.181 50.4081 107.39 55.033 104.408 58.6411L106.721 60.5523C110.131 56.4263 112.181 51.131 112.181 45.3609H109.181ZM88.3199 24.5C99.8411 24.5 109.181 33.8398 109.181 45.3609H112.181C112.181 32.1829 101.498 21.5 88.3199 21.5V24.5ZM67.459 45.3609C67.459 33.8398 76.7987 24.5 88.3199 24.5V21.5C75.1419 21.5 64.459 32.1829 64.459 45.3609H67.459ZM88.3199 66.2218C76.7987 66.2218 67.459 56.8821 67.459 45.3609H64.459C64.459 58.5389 75.1419 69.2218 88.3199 69.2218V66.2218ZM100.916 61.9911C97.4161 64.6466 93.0541 66.2218 88.3199 66.2218V69.2218C93.7313 69.2218 98.7258 67.4186 102.73 64.3811L100.916 61.9911ZM102.116 61.7149C91.6254 59.626 83.7195 50.3659 83.7195 39.2625H80.7195C80.7195 51.8245 89.6634 62.2943 101.53 64.6572L102.116 61.7149ZM83.7195 39.2625C83.7195 33.4013 85.9202 28.0576 89.5427 24.0071L87.3065 22.0072C83.2112 26.5864 80.7195 32.6353 80.7195 39.2625H83.7195ZM88.4173 24.5071C99.891 24.5626 109.175 33.881 109.175 45.3678H112.175C112.175 32.229 101.556 21.5706 88.4318 21.5072L88.4173 24.5071ZM109.175 45.3678C109.175 50.4119 107.387 55.0344 104.408 58.6416L106.721 60.5518C110.128 56.4269 112.175 51.1345 112.175 45.3678H109.175Z" fill="#3A3A3A" mask="url(#path-2-inside-1_1408_280775)"/>
  <circle cx="28.1895" cy="76.625" r="13.875" stroke="#3A3A3A" stroke-width="1.5"/>
  <path d="M28.5957 49.875V57.2306" stroke="#3A3A3A" stroke-width="1.5" stroke-linecap="round"/>
  <path d="M28.5957 96.459V103.815" stroke="#3A3A3A" stroke-width="1.5" stroke-linecap="round"/>
  <path d="M55.5664 76.8438L48.2108 76.8437" stroke="#3A3A3A" stroke-width="1.5" stroke-linecap="round"/>
  <path d="M8.97949 76.8438L1.62391 76.8437" stroke="#3A3A3A" stroke-width="1.5" stroke-linecap="round"/>
  <path d="M47.6621 95.9121L42.4609 90.7109" stroke="#3A3A3A" stroke-width="1.5" stroke-linecap="round"/>
  <path d="M14.7227 62.9766L9.52148 57.7754" stroke="#3A3A3A" stroke-width="1.5" stroke-linecap="round"/>
  <path d="M47.668 57.7695L42.4668 62.9707" stroke="#3A3A3A" stroke-width="1.5" stroke-linecap="round"/>
  <path d="M14.7285 90.7129L9.52733 95.9141" stroke="#3A3A3A" stroke-width="1.5" stroke-linecap="round"/>
</svg>