<svg width="64" height="64" viewBox="0 0 64 64" fill="none" xmlns="http://www.w3.org/2000/svg">
<path fill-rule="evenodd" clip-rule="evenodd" d="M13.5864 24.7569C13.5705 24.4944 13.5625 24.2297 13.5625 23.9632C13.5625 16.8038 19.3663 11 26.5257 11C31.2415 11 35.3691 13.518 37.6374 17.2829C39.9057 13.518 44.0333 11 48.749 11C55.9084 11 61.7122 16.8038 61.7122 23.9632C61.7122 24.2297 61.7042 24.4944 61.6883 24.7569H61.7089C61.7089 35.7617 44.4311 48.2951 37.6434 52.269C17.6502 40.5305 13.2689 29.0365 13.5775 24.7569H13.5864Z" fill="white"/>
<path d="M8.42863 24.7569V25.2569H8.95974L8.92772 24.7267L8.42863 24.7569ZM32.4796 17.2829L32.0513 17.5409L32.4796 18.2517L32.9079 17.5409L32.4796 17.2829ZM56.5306 24.7569L56.0315 24.7267L55.9995 25.2569H56.5306V24.7569ZM56.5506 24.7569H57.0506V24.2569H56.5506V24.7569ZM32.4851 52.269L32.2319 52.7002L32.4847 52.8486L32.7377 52.7005L32.4851 52.269ZM8.41915 24.7569V24.2569H7.9539L7.92045 24.7209L8.41915 24.7569ZM8.92772 24.7267C8.91247 24.4742 8.90473 24.2197 8.90473 23.9632H7.90473C7.90473 24.2398 7.91308 24.5145 7.92954 24.787L8.92772 24.7267ZM8.90473 23.9632C8.90473 17.08 14.4847 11.5 21.368 11.5V10.5C13.9324 10.5 7.90473 16.5277 7.90473 23.9632H8.90473ZM21.368 11.5C25.9012 11.5 29.8697 13.92 32.0513 17.5409L32.9079 17.0248C30.5529 13.1161 26.2662 10.5 21.368 10.5V11.5ZM32.9079 17.5409C35.0895 13.92 39.058 11.5 43.5912 11.5V10.5C38.693 10.5 34.4064 13.1161 32.0513 17.0248L32.9079 17.5409ZM43.5912 11.5C50.4745 11.5 56.0545 17.08 56.0545 23.9632H57.0545C57.0545 16.5277 51.0268 10.5 43.5912 10.5V11.5ZM56.0545 23.9632C56.0545 24.2197 56.0467 24.4742 56.0315 24.7267L57.0297 24.787C57.0461 24.5145 57.0545 24.2398 57.0545 23.9632H56.0545ZM56.5306 25.2569H56.5506V24.2569H56.5306V25.2569ZM56.0506 24.7569C56.0506 27.3802 55.019 30.1345 53.3199 32.8761C51.623 35.614 49.2817 38.3046 46.7153 40.7904C41.5818 45.7628 35.5992 49.8664 32.2324 51.8375L32.7377 52.7005C36.1586 50.6977 42.2088 46.5476 47.4111 41.5087C50.0126 38.9888 52.415 36.2343 54.1698 33.4029C55.9224 30.5751 57.0506 27.636 57.0506 24.7569H56.0506ZM32.7382 51.8379C22.7881 45.9959 16.7506 40.2309 13.2429 35.4213C9.72424 30.5965 8.77535 26.7695 8.91786 24.7928L7.92045 24.7209C7.75441 27.0239 8.84188 31.0837 12.435 36.0105C16.0391 40.9524 22.1888 46.8037 32.2319 52.7002L32.7382 51.8379ZM8.41915 25.2569H8.42863V24.2569H8.41915V25.2569Z" fill="#3A3A3A"/>
<path d="M3 35.0443H15.8461L18.9141 28.8978L23.6646 37.004L27.2274 24.2656L31.9779 40.4781L37.916 26.5817L42.6665 32.9064H60.4808" stroke="#3A3A3A" stroke-linecap="round"/>
</svg>
