<?xml version="1.0" encoding="utf-8"?>
<svg width="104" height="104" viewBox="0 0 104 104" fill="none" xmlns="http://www.w3.org/2000/svg">
  <g clip-path="url(#clip0_1408_280786)">
    <path d="M45.8007 99.8105C31.2907 95.1165 19.9527 75.8923 46.2297 56C56.328 63.8233 71.973 87.2932 45.8007 99.8105Z" stroke="#3A3A3A" stroke-width="1.5"/>
    <path d="M47.8936 99.842C60.6859 97.6327 81.7904 91.9863 81.7904 71.65C80.2258 71.6493 66.1438 70.0807 59.8852 76.339" stroke="#3A3A3A" stroke-width="1.5"/>
    <path d="M 45.804 99.81 C 28.592 98.245 8.037 86.363 11.578 68.661 C 13.044 68.954 25.684 69.737 30.456 76.357" stroke="#3A3A3A" stroke-width="1.5" style="stroke-linecap: round;"/>
    <path d="M47.3646 99.8105C42.5181 102.757 16.3082 104.564 2.14431 83.7891C5.46587 83.713 9.36411 83.6445 14.5068 83.7891" stroke="#3A3A3A" stroke-width="1.5"/>
    <path d="M47.3671 99.8112C52.636 104.02 77.9184 106.433 91.5403 83.5581C88.0468 83.0001 85.178 82.904 79.7849 82.3541" stroke="#3A3A3A" stroke-width="1.5"/>
  </g>
  <defs>
    <clipPath id="clip0_1408_280786">
      <rect width="104" height="104" fill="none"/>
    </clipPath>
  </defs>
</svg>