<svg width="64" height="64" viewBox="0 0 64 64" fill="none" xmlns="http://www.w3.org/2000/svg">
<path fill-rule="evenodd" clip-rule="evenodd" d="M34.075 42.9018C34.0403 42.9005 34.0054 42.8989 33.9705 42.8969L33.9448 42.9044L33.9488 42.8956C33.9158 42.8935 33.8827 42.8911 33.8496 42.8884C33.8558 42.9035 33.8619 42.9185 33.8676 42.9335C33.555 43.0543 33.1503 43.1668 32.6654 43.2627C32.6761 43.3006 32.6869 43.3363 32.6977 43.3696C32.6186 43.3469 32.5397 43.3241 32.4611 43.3013C27.7206 44.1543 16.0925 43.4506 7.11328 34.3175C9.91741 33.808 12.8425 33.8432 15.6868 34.2382C12.7874 30.8451 12.7154 27.6665 13.5089 25.8141C18.35 26.1468 21.9193 27.3951 24.5657 29.0893C24.9632 24.6327 27.6311 19.6441 34.2376 15C37.7878 17.3991 41.4886 23.0743 42.4261 28.8092C44.827 27.3259 48.1188 26.2513 52.7778 25.8499C52.7778 29.72 51.6967 32.6195 49.9929 34.8393C52.3718 34.8899 54.9886 35.2088 57.8661 35.8721C49.9519 46.0896 39.3348 44.8645 34.075 42.9018Z" fill="white"/>
<path d="M31.1851 41.9603C22.2558 39.0717 15.2786 27.2414 31.4491 15C37.6634 19.8143 47.2911 34.2574 31.1851 41.9603Z" stroke="#3A3A3A"/>
<path d="M32.4727 41.9803C40.3449 40.6207 53.3323 37.146 53.3323 24.6313C52.3694 24.6309 43.7036 23.6657 39.8521 27.5169" stroke="#3A3A3A"/>
<path d="M31.1874 41.9595C20.5957 40.9966 7.94623 33.6847 10.1257 22.791C11.0276 22.9711 19.3122 23.7547 22.2488 27.8288" stroke="#3A3A3A"/>
<path d="M32.1471 41.96C29.1646 43.7735 13.0355 44.8852 4.3192 32.1007C6.36324 32.0539 8.76215 32.0117 11.9269 32.1007" stroke="#3A3A3A"/>
<path d="M32.1497 41.96C35.3921 44.5499 50.9505 46.035 59.3333 31.9581C57.1834 31.6147 55.418 31.5556 52.0991 31.2171" stroke="#3A3A3A"/>
</svg>
