<?xml version="1.0" encoding="utf-8"?>
<svg width="104" height="104" viewBox="0 0 104 104" fill="none" xmlns="http://www.w3.org/2000/svg">
  <g clip-path="url(#clip0_1408_280774)">
    <path d="M50.3172 31.1388L49.716 31.5873L49.774 31.665L49.8498 31.7254L50.3172 31.1388ZM42.9981 55.7467L43.0871 55.002L42.2481 54.9017V55.7467H42.9981ZM39.793 58.8447L39.0753 59.0624L39.0753 59.0624L39.793 58.8447ZM38.2111 53.7938L38.9233 53.5588L38.8492 53.3341L38.6595 53.1926L38.2111 53.7938ZM35.2447 50.5784L35.8753 50.1723L35.6516 49.825L35.2386 49.8284L35.2447 50.5784ZM25.168 44.8975L25.8247 44.5352L25.7013 44.3115L25.467 44.2097L25.168 44.8975ZM50.9183 30.6904C47.6802 26.3499 41.1879 22.627 34.2327 22.627V24.127C40.7022 24.127 46.7536 27.6164 49.716 31.5873L50.9183 30.6904ZM56.0863 42.3573C56.0863 37.4683 54.0054 33.1183 50.7845 30.5522L49.8498 31.7254C52.679 33.9794 54.5863 37.879 54.5863 42.3573H56.0863ZM44.1228 56.5635C50.8523 56.5635 56.0863 50.0693 56.0863 42.3573H54.5863C54.5863 49.5086 49.7794 55.0635 44.1228 55.0635V56.5635ZM42.9091 56.4914C43.3084 56.5391 43.7133 56.5635 44.1228 56.5635V55.0635C43.773 55.0635 43.4276 55.0426 43.0871 55.002L42.9091 56.4914ZM43.7481 58.5568V55.7467H42.2481V58.5568H43.7481ZM41.9981 60.3068C42.9646 60.3068 43.7481 59.5233 43.7481 58.5568H42.2481C42.2481 58.6948 42.1362 58.8068 41.9981 58.8068V60.3068ZM40.7519 60.3068H41.9981V58.8068H40.7519V60.3068ZM39.0753 59.0624C39.299 59.8003 39.979 60.3068 40.7519 60.3068V58.8068C40.6416 58.8068 40.5433 58.7344 40.5107 58.6271L39.0753 59.0624ZM37.4989 54.0288C37.993 55.5264 38.6592 57.69 39.0753 59.0624L40.5107 58.6271C40.0942 57.2534 39.4236 55.0749 38.9233 53.5588L37.4989 54.0288ZM34.6142 50.9844C35.4786 52.3268 36.5439 53.4858 37.7627 54.395L38.6595 53.1926C37.5943 52.398 36.6495 51.3745 35.8753 50.1723L34.6142 50.9844ZM35.1438 51.3288C35.1795 51.3288 35.2152 51.3286 35.2509 51.3283L35.2386 49.8284C35.207 49.8286 35.1754 49.8288 35.1438 49.8288V51.3288ZM24.5114 45.2598C26.5085 48.8797 30.5327 51.3288 35.1438 51.3288V49.8288C31.0631 49.8288 27.5503 47.663 25.8247 44.5352L24.5114 45.2598ZM17.2051 36.3745C17.2051 40.3301 20.3885 43.6377 24.8691 45.5853L25.467 44.2097C21.2148 42.3613 18.7051 39.4486 18.7051 36.3745H17.2051ZM34.2327 22.627C29.291 22.627 25.0486 24.5054 22.0385 27.1442C19.0456 29.7679 17.2051 33.2078 17.2051 36.3745H18.7051C18.7051 33.761 20.2554 30.7021 23.0273 28.2721C25.782 25.8572 29.6784 24.127 34.2327 24.127V22.627Z" fill="#3A3A3A"/>
    <path d="M7.70043 68.8061C5.16776 68.4939 -0.0954688 66.1221 2.18393 63.8739C12.6308 53.5702 6.48308 49.6615 8.24994 39.4656C9.81122 30.4561 13.8845 25.9114 20.6733 22.3089C36.0248 14.1626 55.3718 22.3117 61.4059 33.169C68.1956 45.3858 65.8974 62.2393 51.7408 79.3228C47.6953 84.2046 46.1645 93.9683 51.7408 103.732" stroke="#3A3A3A" stroke-width="1.5"/>
    <path d="M7.0921 68.4727C5.86516 72.8175 5.02248 84.7657 16.5958 84.7657C24.9287 84.7657 20.5493 92.9123 20.5495 103.774" stroke="#3A3A3A" stroke-width="1.5"/>
  </g>
  <defs>
    <clipPath id="clip0_1408_280774">
      <rect width="104" height="104" fill="white"/>
    </clipPath>
  </defs>
</svg>