<?xml version="1.0" encoding="utf-8"?>
<svg width="104" height="104" viewBox="0 0 104 104" fill="none" xmlns="http://www.w3.org/2000/svg">
  <path d="M44.1992 46.6621C43.785 46.6621 43.4492 46.9979 43.4492 47.4121C43.4492 47.8263 43.785 48.1621 44.1992 48.1621V46.6621ZM74.1962 47.9424C74.4891 47.6495 74.4891 47.1747 74.1962 46.8818L69.4233 42.1088C69.1304 41.8159 68.6555 41.8159 68.3626 42.1088C68.0697 42.4017 68.0697 42.8766 68.3626 43.1695L72.6052 47.4121L68.3626 51.6547C68.0697 51.9476 68.0697 52.4225 68.3626 52.7154C68.6555 53.0083 69.1304 53.0083 69.4233 52.7154L74.1962 47.9424ZM44.1992 48.1621H73.6659V46.6621H44.1992V48.1621Z" fill="#3A3A3A"/>
  <path d="M32.4126 27.4045L5.89258 15V82.5357L32.4126 100.453V27.4045Z" stroke="#3A3A3A" stroke-width="1.5" stroke-linecap="round"/>
</svg>