<svg width="64" height="64" viewBox="0 0 64 64" fill="none" xmlns="http://www.w3.org/2000/svg">
<path d="M9.72177 11.0005C15.5043 12.0966 27.6137 16.9796 29.7908 27.7434C22.8366 27.9828 9.08689 24.9694 9.72177 11.0005Z" fill="white"/>
<path d="M37.3029 36.6939C38.7255 30.983 44.2884 19.1704 55.1586 17.6083C55.0026 24.5649 51.2131 38.1212 37.3029 36.6939Z" fill="white"/>
<path d="M18.9932 52.6172L48.9574 52.6172" stroke="#3A3A3A" stroke-linecap="round"/>
<path d="M34.804 52.6171C32.5844 40.9643 35.6359 19.3235 52.2827 15.9941" stroke="#3A3A3A" stroke-linecap="round"/>
<path d="M33.9728 52.617C34.2503 37.08 33.9728 11 12.332 11" stroke="#3A3A3A" stroke-linecap="round"/>
<path d="M37.2998 36.8026C42.0164 35.6928 51.616 29.9774 52.2819 15.9941" stroke="#3A3A3A" stroke-linecap="round"/>
<path d="M12.3948 11C11.8399 14.8842 14.7253 23.6516 30.7063 27.6468" stroke="#3A3A3A" stroke-linecap="round"/>
</svg>
