<?xml version="1.0" encoding="utf-8"?>
<svg width="104" height="105" viewBox="0 0 104 105" fill="none" xmlns="http://www.w3.org/2000/svg">
  <path d="M26.055 41.666L26.6012 41.152L26.3791 40.916H26.055V41.666ZM50.2394 41.666V40.916H49.9154L49.6933 41.152L50.2394 41.666ZM72.6761 41.666V42.416V41.666ZM72.6761 48.307V49.057V48.307ZM55.0666 48.307V47.557H54.3166V48.307H55.0666ZM55.0666 82.777V83.527H55.8166V82.777H55.0666ZM48.1064 82.777V82.027H47.3564V82.777H48.1064ZM41.4654 82.777H42.2154V82.027H41.4654V82.777ZM34.8271 82.777V82.027H34.0771V82.777H34.8271ZM28.1861 82.777H28.9361V82.027H28.1861V82.777ZM9.84444 82.777L9.15597 82.4795L8.70329 83.527H9.84444V82.777ZM24.7404 48.307L25.4289 48.6045L25.8816 47.557H24.7404V48.307ZM3.625 48.307V47.557V48.307ZM26.055 40.916H3.625V42.416H26.055V40.916ZM38.1472 46.1421C33.5958 46.1421 29.4933 44.2249 26.6012 41.152L25.5089 42.18C28.6727 45.5416 33.1653 47.6421 38.1472 47.6421V46.1421ZM49.6933 41.152C46.8011 44.2249 42.6987 46.1421 38.1472 46.1421V47.6421C43.1292 47.6421 47.6218 45.5416 50.7856 42.18L49.6933 41.152ZM72.6761 40.916L50.2394 40.916V42.416L72.6761 42.416V40.916ZM75.4261 43.666C75.4261 42.1472 74.1949 40.916 72.6761 40.916V42.416C73.3665 42.416 73.9261 42.9757 73.9261 43.666H75.4261ZM75.4261 46.307V43.666H73.9261V46.307H75.4261ZM72.6761 49.057C74.1949 49.057 75.4261 47.8258 75.4261 46.307H73.9261C73.9261 46.9974 73.3665 47.557 72.6761 47.557V49.057ZM55.0666 49.057L72.6761 49.057V47.557L55.0666 47.557V49.057ZM55.8166 82.777V48.307H54.3166V82.777H55.8166ZM48.1064 83.527H55.0666V82.027H48.1064V83.527ZM48.8564 101.326V82.777H47.3564V101.326H48.8564ZM46.1064 104.076C47.6252 104.076 48.8564 102.844 48.8564 101.326H47.3564C47.3564 102.016 46.7968 102.576 46.1064 102.576V104.076ZM43.4654 104.076H46.1064V102.576H43.4654V104.076ZM40.7154 101.326C40.7154 102.844 41.9466 104.076 43.4654 104.076V102.576C42.775 102.576 42.2154 102.016 42.2154 101.326H40.7154ZM40.7154 82.777V101.326H42.2154V82.777H40.7154ZM34.8271 83.527H41.4654V82.027H34.8271V83.527ZM35.5771 101.326V82.777H34.0771V101.326H35.5771ZM32.8271 104.076C34.3459 104.076 35.5771 102.844 35.5771 101.326H34.0771C34.0771 102.016 33.5175 102.576 32.8271 102.576V104.076ZM30.1861 104.076H32.8271V102.576H30.1861V104.076ZM27.4361 101.326C27.4361 102.844 28.6673 104.076 30.1861 104.076V102.576C29.4957 102.576 28.9361 102.016 28.9361 101.326H27.4361ZM27.4361 82.777V101.326H28.9361V82.777H27.4361ZM9.84444 83.527H28.1861V82.027H9.84444V83.527ZM24.0519 48.0095L9.15597 82.4795L10.5329 83.0746L25.4289 48.6045L24.0519 48.0095ZM3.625 49.057L24.7404 49.057V47.557L3.625 47.557V49.057ZM0.875 46.307C0.875 47.8258 2.10622 49.057 3.625 49.057V47.557C2.93465 47.557 2.375 46.9974 2.375 46.307H0.875ZM0.875 43.666V46.307H2.375V43.666H0.875ZM3.625 40.916C2.10622 40.916 0.875 42.1472 0.875 43.666H2.375C2.375 42.9757 2.93464 42.416 3.625 42.416V40.916Z" fill="#3A3A3A"/>
  <ellipse cx="38.6185" cy="29.3333" rx="12.3333" ry="12.3333" stroke="#3A3A3A" stroke-width="1.5"/>
</svg>