<?xml version="1.0" encoding="utf-8"?>
<svg width="104" height="105" viewBox="0 0 104 105" fill="none" xmlns="http://www.w3.org/2000/svg">
  <path fill-rule="evenodd" clip-rule="evenodd" d="M11.8418 42.6895H34.2721C37.3001 45.9066 41.5975 47.9153 46.3641 47.9153C51.1308 47.9153 55.4282 45.9066 58.4562 42.6895L80.8929 42.6895C81.9975 42.6895 82.8929 43.5849 82.8929 44.6895V47.3305C82.8929 48.435 81.9975 49.3305 80.8929 49.3305L63.2834 49.3305V83.8005H56.3232V102.349C56.3232 103.454 55.4278 104.349 54.3232 104.349H51.6822C50.5776 104.349 49.6822 103.454 49.6822 102.349V83.8005H43.0439V102.349C43.0439 103.454 42.1485 104.349 41.0439 104.349H38.4029C37.2983 104.349 36.4029 103.454 36.4029 102.349V83.8005H18.0612L32.9572 49.3305L11.8418 49.3305C10.7372 49.3305 9.8418 48.435 9.8418 47.3305V44.6895C9.8418 43.5849 10.7372 42.6895 11.8418 42.6895Z" fill="white"/>
  <ellipse cx="46.8362" cy="30.3646" rx="12.3333" ry="12.3333" fill="white"/>
</svg>