<svg width="262" height="155" viewBox="0 0 262 155" fill="none" xmlns="http://www.w3.org/2000/svg">
<path d="M134.834 78.0333C146.147 85.1718 167.91 88.2569 191.226 86.0901C225.35 82.9188 220.91 102.557 173.761 118.69C140.805 129.966 65.2178 127.141 69.555 89.988C72.2919 66.5425 118.488 67.7194 134.834 78.0333Z" fill="#FFACE4"/>
<path fill-rule="evenodd" clip-rule="evenodd" d="M137.628 84C133.346 84 129.875 87.4713 129.875 91.7534V97.9607H128.714C127.215 97.9607 126 99.1757 126 100.674C126 102.173 127.215 103.388 128.714 103.388H134.549C134.534 103.513 134.526 103.64 134.526 103.769C134.526 105.482 135.914 106.871 137.627 106.871C139.34 106.871 140.728 105.482 140.728 103.769C140.728 103.64 140.721 103.513 140.705 103.388H146.547C148.045 103.388 149.26 102.173 149.26 100.674C149.26 99.1757 148.045 97.9607 146.547 97.9607H145.382V91.7534C145.382 87.4713 141.91 84 137.628 84Z" fill="#F6F6F6"/>
<rect x="116.445" y="69" width="38.6552" height="64.1478" rx="1.5" stroke="black"/>
<circle cx="135.774" cy="127.047" r="2.83251" fill="black"/>
<line x1="116.033" y1="120.621" x2="155.24" y2="120.621" stroke="black"/>
<mask id="path-6-inside-1" fill="white">
<path fill-rule="evenodd" clip-rule="evenodd" d="M127.954 89.0132C127.954 84.7311 131.425 81.2598 135.707 81.2598C139.989 81.2598 143.46 84.7311 143.46 89.0132V95.2146H144.629C146.127 95.2146 147.342 96.4296 147.342 97.9283C147.342 99.4271 146.127 100.642 144.629 100.642H142.816C142.816 100.642 142.816 100.642 142.816 100.642H128.598C128.598 100.642 128.598 100.642 128.598 100.642H126.796C125.297 100.642 124.082 99.4271 124.082 97.9283C124.082 96.4296 125.297 95.2146 126.796 95.2146H127.954V89.0132Z"/>
</mask>
<path d="M143.46 95.2146H142.46V96.2146H143.46V95.2146ZM142.816 100.642V99.642H142.154L141.896 100.251L142.816 100.642ZM142.816 100.642V101.642H143.477L143.736 101.033L142.816 100.642ZM128.598 100.642L127.68 101.038L127.94 101.642H128.598V100.642ZM128.598 100.642L129.516 100.246L129.256 99.642H128.598V100.642ZM127.954 95.2146V96.2146H128.954V95.2146H127.954ZM135.707 80.2598C130.873 80.2598 126.954 84.1788 126.954 89.0132H128.954C128.954 85.2834 131.977 82.2598 135.707 82.2598V80.2598ZM144.46 89.0132C144.46 84.1788 140.541 80.2598 135.707 80.2598V82.2598C139.437 82.2598 142.46 85.2834 142.46 89.0132H144.46ZM144.46 95.2146V89.0132H142.46V95.2146H144.46ZM143.46 96.2146H144.629V94.2146H143.46V96.2146ZM144.629 96.2146C145.575 96.2146 146.342 96.9819 146.342 97.9283H148.342C148.342 95.8773 146.68 94.2146 144.629 94.2146V96.2146ZM146.342 97.9283C146.342 98.8748 145.575 99.642 144.629 99.642V101.642C146.68 101.642 148.342 99.9794 148.342 97.9283H146.342ZM144.629 99.642H142.816V101.642H144.629V99.642ZM143.736 101.033C143.734 101.038 143.733 101.042 143.732 101.044C143.731 101.046 143.73 101.048 143.73 101.047C143.73 101.047 143.73 101.047 143.73 101.047C143.73 101.047 143.73 101.047 143.73 101.047C143.73 101.047 143.73 101.047 143.73 101.047C143.73 101.047 143.73 101.047 143.731 101.046C143.731 101.046 143.731 101.045 143.732 101.044C143.733 101.041 143.734 101.038 143.736 101.033L141.896 100.251C141.897 100.246 141.899 100.243 141.9 100.241C141.901 100.239 141.902 100.237 141.902 100.237C141.902 100.237 141.902 100.237 141.902 100.237C141.902 100.237 141.902 100.237 141.902 100.237C141.901 100.237 141.901 100.237 141.901 100.237C141.901 100.237 141.901 100.238 141.901 100.238C141.901 100.239 141.9 100.239 141.9 100.241C141.899 100.243 141.897 100.247 141.895 100.251L143.736 101.033ZM128.598 101.642H142.816V99.6423H128.598V101.642ZM127.68 101.038L127.68 101.038L129.517 100.246L129.516 100.246L127.68 101.038ZM128.598 99.642H126.796V101.642H128.598V99.642ZM126.796 99.642C125.849 99.642 125.082 98.8748 125.082 97.9283H123.082C123.082 99.9794 124.745 101.642 126.796 101.642V99.642ZM125.082 97.9283C125.082 96.9819 125.849 96.2146 126.796 96.2146V94.2146C124.745 94.2146 123.082 95.8773 123.082 97.9283H125.082ZM126.796 96.2146H127.954V94.2146H126.796V96.2146ZM126.954 89.0132V95.2146H128.954V89.0132H126.954Z" fill="black" mask="url(#path-6-inside-1)"/>
<path d="M135.709 81.6522V79.3262" stroke="black" stroke-linecap="round"/>
<path fill-rule="evenodd" clip-rule="evenodd" d="M132.607 100.648C132.607 100.649 132.607 100.65 132.607 100.651C132.607 102.364 133.996 103.753 135.709 103.753C137.422 103.753 138.81 102.364 138.81 100.651C138.81 100.65 138.81 100.649 138.81 100.648H137.81C137.81 100.649 137.81 100.65 137.81 100.651C137.81 101.812 136.869 102.753 135.709 102.753C134.548 102.753 133.607 101.812 133.607 100.651C133.607 100.65 133.607 100.649 133.607 100.648H132.607Z" fill="black"/>
<path d="M98.3996 117.5C86.8991 111 79.899 91 98.3996 78" stroke="black" stroke-linecap="round"/>
<path d="M102 109C95.9469 105.38 92.2625 94.2405 102 87" stroke="black" stroke-linecap="round"/>
<path d="M173.6 78C185.101 84.5 192.101 104.5 173.6 117.5" stroke="black" stroke-linecap="round"/>
<path d="M170 86.5C176.053 90.1203 179.737 101.259 170 108.5" stroke="black" stroke-linecap="round"/>
<path d="M99 2C99.6667 1.24538 101.769 0.188904 104.846 2C107.923 3.8111 110.231 2.75462 111 2" stroke="black"/>
<path d="M21 50.5C21.3333 50.1227 22.3846 49.5945 23.9231 50.5C25.4615 51.4055 26.6154 50.8773 27 50.5" stroke="black"/>
<path d="M155 51.5C155.333 51.1227 156.385 50.5945 157.923 51.5C159.462 52.4055 160.615 51.8773 161 51.5" stroke="black"/>
<path d="M74 149.5C74.3333 149.123 75.3846 148.594 76.9231 149.5C78.4615 150.406 79.6154 149.877 80 149.5" stroke="black"/>
<path d="M249 11.5C249.333 11.1227 250.385 10.5945 251.923 11.5C253.462 12.4055 254.615 11.8773 255 11.5" stroke="black"/>
<path d="M249 70C249.667 69.2454 251.769 68.1889 254.846 70C257.923 71.8111 260.231 70.7546 261 70" stroke="black"/>
<path d="M210 153C210.667 152.245 212.769 151.189 215.846 153C218.923 154.811 221.231 153.755 222 153" stroke="black"/>
<path d="M1 113C1.66667 112.245 3.76923 111.189 6.84615 113C9.92308 114.811 12.2308 113.755 13 113" stroke="black"/>
</svg>
