<?xml version="1.0" encoding="utf-8"?>
<svg width="104" height="104" viewBox="0 0 104 104" fill="none" xmlns="http://www.w3.org/2000/svg">
  <path d="M20.7879 48.7866C21.3546 48.1822 31.7017 39.8479 36.8045 35.7564" stroke="#3A3A3A" stroke-width="1.5" stroke-linecap="round"/>
  <path d="M21.1269 70.3081C21.7752 70.7378 29.4455 78.5333 33.1996 82.3774" stroke="#3A3A3A" stroke-width="1.5" stroke-linecap="round"/>
  <path d="M27.1611 61.25L51.3042 61.25" stroke="#3A3A3A" stroke-width="1.5" stroke-linecap="round"/>
  <path d="M50.5568 89.9161C50.5568 95.3355 46.1636 99.7287 40.7442 99.7287C35.3249 99.7287 30.9316 95.3355 30.9316 89.9161C30.9316 84.4968 35.3249 80.1035 40.7442 80.1035C46.1636 80.1035 50.5568 84.4968 50.5568 89.9161Z" stroke="#3A3A3A" stroke-width="1.5"/>
  <circle cx="45.4649" cy="29.5626" r="9.8126" stroke="#3A3A3A" stroke-width="1.5"/>
  <path d="M71.6789 59.7442C71.6789 65.1636 67.2857 69.5568 61.8663 69.5568C56.447 69.5568 52.0537 65.1636 52.0537 59.7442C52.0537 54.3249 56.447 49.9316 61.8663 49.9316C67.2857 49.9316 71.6789 54.3249 71.6789 59.7442Z" stroke="#3A3A3A" stroke-width="1.5"/>
  <path d="M26.411 59.7406C26.411 66.8267 20.6666 72.5711 13.5805 72.5711C6.49441 72.5711 0.75 66.8267 0.75 59.7406C0.75 52.6546 6.49441 46.9102 13.5805 46.9102C20.6666 46.9102 26.411 52.6546 26.411 59.7406Z" stroke="#3A3A3A" stroke-width="1.5"/>
</svg>