<?xml version="1.0" encoding="utf-8"?>
<svg width="105" height="104" viewBox="0 0 105 104" fill="none" xmlns="http://www.w3.org/2000/svg">
  <path d="M75.1049 101.465L65.998 24" stroke="#3A3A3A" stroke-width="1.5" stroke-linecap="round"/>
  <path d="M59.501 101.999V24" stroke="#3A3A3A" stroke-width="1.5" stroke-linecap="round"/>
  <path d="M1.53837 42.5064L1.56041 46.1434C1.58637 50.4296 5.13011 53.9528 9.4187 53.956V53.956C13.5886 53.9592 16.9056 50.6263 16.8802 46.4587L16.7833 30.512" stroke="#3A3A3A" stroke-width="1.5" stroke-linecap="round"/>
  <path d="M10.75 36.998L10.75 101.997" stroke="#3A3A3A" stroke-width="1.5" stroke-linecap="round"/>
  <path d="M36.75 66.2441L36.75 101.994" stroke="#3A3A3A" stroke-width="1.5" stroke-linecap="round"/>
  <path d="M49.001 53.6926C49.001 60.2104 43.7173 65.4941 37.1995 65.4941L36.3029 65.4941C29.7852 65.4941 24.5014 60.2104 24.5014 53.6926L24.5014 53.2444C24.5014 46.479 29.9859 40.9946 36.7512 40.9946C43.5166 40.9946 49.001 46.479 49.001 53.2444L49.001 53.6926Z" stroke="#3A3A3A" stroke-width="1.5"/>
</svg>