<?xml version="1.0" encoding="utf-8"?>
<svg width="104" height="104" viewBox="0 0 104 104" fill="none" xmlns="http://www.w3.org/2000/svg">
  <g clip-path="url(#clip0_1408_280786)">
    <path fill-rule="evenodd" clip-rule="evenodd" d="M50.4974 101.34C50.4409 101.338 50.3843 101.336 50.3275 101.332L50.2857 101.345L50.2923 101.33C50.2387 101.327 50.185 101.323 50.1311 101.319C50.1412 101.343 50.151 101.368 50.1604 101.392C49.6523 101.588 48.9948 101.771 48.2067 101.927C48.2242 101.989 48.2417 102.046 48.2593 102.101C48.1306 102.064 48.0025 102.027 47.8748 101.99C40.1715 103.376 21.2757 102.232 6.68457 87.391C11.2413 86.563 15.9945 86.6201 20.6165 87.2621C15.9051 81.7482 15.788 76.583 17.0775 73.5729C24.9442 74.1135 30.7444 76.1421 35.0447 78.8952C35.6906 71.6532 40.026 63.5467 50.7617 56C56.5307 59.8986 62.5445 69.1207 64.0679 78.44C67.9694 76.0295 73.3185 74.2833 80.8895 73.6311C80.8895 79.92 79.1327 84.6317 76.364 88.2389C80.2296 88.3211 84.4819 88.8393 89.1579 89.9171C76.2973 106.521 59.0445 104.53 50.4974 101.34Z" fill="white"/>
  </g>
  <defs>
    <clipPath id="clip0_1408_280786">
      <rect width="104" height="104" fill="white"/>
    </clipPath>
  </defs>
</svg>