<svg width="64" height="64" viewBox="0 0 64 64" fill="none" xmlns="http://www.w3.org/2000/svg">
<path d="M44.5201 18.0651C43.0807 15.9786 41.2444 14.1961 39.1161 12.8193C36.9878 11.4424 34.6092 10.4983 32.116 10.0408C29.6229 9.58323 27.064 9.62123 24.5855 10.1526C22.107 10.684 19.7575 11.6983 17.671 13.1378C15.5845 14.5772 13.802 16.4134 12.4252 18.5417C11.0484 20.67 10.1043 23.0486 9.64673 25.5418C9.18918 28.035 9.22719 30.5939 9.75857 33.0723C10.2899 35.5508 11.3043 37.9004 12.7437 39.9868L28.6319 29.0259L44.5201 18.0651Z" fill="white"/>
<path d="M13.4071 12.639C9.92202 18.6922 12.111 26.0842 16.3827 32.8454" stroke="#3A3A3A" stroke-linecap="round"/>
<path d="M13.8229 12.4741C21.3062 11.6154 26.5377 15.3074 30.845 22.077" stroke="#3A3A3A" stroke-linecap="round"/>
<mask id="path-4-inside-1_1408_293256" fill="white">
<path d="M39.358 17.5084C37.9186 15.4219 36.0823 13.6394 33.954 12.2626C31.8257 10.8858 29.4471 9.94168 26.9539 9.48413C24.4608 9.02659 21.9019 9.06459 19.4234 9.59597C16.9449 10.1274 14.5954 11.1417 12.5089 12.5811C10.4224 14.0205 8.6399 15.8568 7.2631 17.9851C5.88629 20.1134 4.94216 22.492 4.48462 24.9852C4.02707 27.4783 4.06508 30.0372 4.59646 32.5157C5.12784 34.9942 6.14219 37.3437 7.58159 39.4302L23.4698 28.4693L39.358 17.5084Z"/>
</mask>
<path d="M39.358 17.5084C37.9186 15.4219 36.0823 13.6394 33.954 12.2626C31.8257 10.8858 29.4471 9.94168 26.9539 9.48413C24.4608 9.02659 21.9019 9.06459 19.4234 9.59597C16.9449 10.1274 14.5954 11.1417 12.5089 12.5811C10.4224 14.0205 8.6399 15.8568 7.2631 17.9851C5.88629 20.1134 4.94216 22.492 4.48462 24.9852C4.02707 27.4783 4.06508 30.0372 4.59646 32.5157C5.12784 34.9942 6.14219 37.3437 7.58159 39.4302L23.4698 28.4693L39.358 17.5084Z" stroke="#3A3A3A" stroke-width="2" mask="url(#path-4-inside-1_1408_293256)"/>
<path d="M4.49902 57.056C13.4772 49.3998 37.5901 35.3403 62.2161 40.3516" stroke="#3A3A3A" stroke-linecap="round"/>
<path d="M11.0791 9.16211L36.9807 47.7666" stroke="#3A3A3A" stroke-linecap="round"/>
</svg>
