<svg width="64" height="64" viewBox="0 0 64 64" fill="none" xmlns="http://www.w3.org/2000/svg">
<path d="M36.1992 24.4473C35.9231 24.4473 35.6992 24.6711 35.6992 24.9473C35.6992 25.2234 35.9231 25.4473 36.1992 25.4473V24.4473ZM54.6861 25.3008C54.8814 25.1056 54.8814 24.789 54.6861 24.5937L51.5041 21.4117C51.3089 21.2165 50.9923 21.2165 50.797 21.4117C50.6018 21.607 50.6018 21.9236 50.797 22.1188L53.6255 24.9473L50.797 27.7757C50.6018 27.971 50.6018 28.2875 50.797 28.4828C50.9923 28.6781 51.3089 28.6781 51.5041 28.4828L54.6861 25.3008ZM36.1992 25.4473H54.3326V24.4473H36.1992V25.4473Z" fill="#3A3A3A"/>
<path d="M41.6393 13.6889V5H12.626V46.7067H41.6393V35.4111" stroke="#3A3A3A" stroke-linecap="round"/>
<path d="M25.32 14.448L9 6.81445V48.3749L25.32 59.4011V14.448Z" fill="white"/>
<path d="M28.946 12.6336L12.626 5V46.5605L28.946 57.5867V12.6336Z" stroke="#3A3A3A" stroke-linecap="round"/>
</svg>
