<?xml version="1.0" encoding="utf-8"?>
<svg width="104" height="104" viewBox="0 0 104 104" fill="none" xmlns="http://www.w3.org/2000/svg">
  <path fill-rule="evenodd" clip-rule="evenodd" d="M47.5527 30.7031C47.2766 30.7031 47.0527 30.927 47.0527 31.2031V51.9012H51.7523V67.5547H89.8406C89.9688 67.5547 90.0921 67.604 90.185 67.6923L100.157 77.1696C100.476 77.4722 101.002 77.2465 101.002 76.8071V67.5547V57.1429V31.2031C101.002 30.927 100.778 30.7031 100.502 30.7031H47.5527Z" fill="white"/>
  <path fill-rule="evenodd" clip-rule="evenodd" d="M59.12 56.748C59.12 56.4719 58.8961 56.248 58.62 56.248H9.22461C8.94847 56.248 8.72461 56.4719 8.72461 56.748V82.6879V93.0997V102.295C8.72461 102.743 9.26748 102.965 9.5812 102.646L18.817 93.2492C18.911 93.1535 19.0394 93.0997 19.1735 93.0997H58.62C58.8961 93.0997 59.12 92.8758 59.12 92.5997V56.748Z" fill="white"/>
</svg>