<svg width="56" height="56" viewBox="0 0 56 56" fill="none" xmlns="http://www.w3.org/2000/svg">
<circle cx="28" cy="28" r="13" stroke="#2A2A2A" stroke-width="2"/>
<path fill-rule="evenodd" clip-rule="evenodd" d="M33.5348 33.5331C33.9904 33.0775 33.9904 32.3388 33.5348 31.8832L29.6727 28.0212L33.5349 24.159C33.9906 23.7033 33.9906 22.9646 33.5349 22.509C33.0793 22.0534 32.3406 22.0534 31.885 22.509L28.0228 26.3713L24.1593 22.5077C23.7037 22.0521 22.965 22.0521 22.5094 22.5077C22.0538 22.9633 22.0538 23.702 22.5094 24.1576L26.3729 28.0212L22.5096 31.8845C22.0539 32.3401 22.0539 33.0788 22.5096 33.5344C22.9652 33.99 23.7039 33.99 24.1595 33.5344L28.0228 29.6711L31.8849 33.5331C32.3405 33.9887 33.0792 33.9887 33.5348 33.5331Z" fill="#2A2A2A"/>
</svg>
